<svg xmlns="http://www.w3.org/2000/svg" version="1.1" xmlns:xlink="http://www.w3.org/1999/xlink" xmlns:svgjs="http://svgjs.dev/svgjs" width="1000" height="623" viewBox="0 0 1000 623"><g transform="matrix(1,0,0,1,-0.6060606060606233,0.2522267206477409)"><svg viewBox="0 0 396 247" data-background-color="#ffffff" preserveAspectRatio="xMidYMid meet" height="623" width="1000" xmlns="http://www.w3.org/2000/svg" xmlns:xlink="http://www.w3.org/1999/xlink"><g id="tight-bounds" transform="matrix(1,0,0,1,0.2400000000000091,-0.09999999999999432)"><svg viewBox="0 0 395.52 247.2" height="247.2" width="395.52"><g><svg></svg></g><g><svg viewBox="0 0 395.52 247.2" height="247.2" width="395.52"><g transform="matrix(1,0,0,1,39.55199999999999,87.65729977162233)"><svg viewBox="0 0 316.416 71.88540045675532" height="71.88540045675532" width="316.416"><g><svg viewBox="0 0 316.416 71.88540045675532" height="71.88540045675532" width="316.416"><g><svg viewBox="0 0 316.416 71.88540045675532" height="71.88540045675532" width="316.416"><g id="textblocktransform"><svg viewBox="0 0 316.416 71.88540045675532" height="71.88540045675532" width="316.416" id="textblock"><g><svg viewBox="0 0 316.416 44.89608202123764" height="44.89608202123764" width="316.416"><g transform="matrix(1,0,0,1,0,0)"><svg width="316.416" viewBox="3.3 -35.5 273.08 38.75" height="44.89608202123764" data-palette-color="#ffa500"><path d="M28.45 3.25L27.35 3.25Q26.8 3.25 26.4 2.83 26 2.4 25.75 2.1L25.75 2.1 23.55-0.95Q20.55 0.5 16.55 0.5L16.55 0.5Q12.4 0.5 9.5-0.98 6.6-2.45 5.05-5.53 3.5-8.6 3.35-13.3L3.35-13.3Q3.3-15.55 3.3-17.5 3.3-19.45 3.35-21.7L3.35-21.7Q3.5-26.35 5.15-29.43 6.8-32.5 9.73-34 12.65-35.5 16.55-35.5L16.55-35.5Q20.45-35.5 23.38-34 26.3-32.5 27.98-29.43 29.65-26.35 29.75-21.7L29.75-21.7Q29.85-19.45 29.85-17.5 29.85-15.55 29.75-13.3L29.75-13.3Q29.5-6.15 26.1-2.8L26.1-2.8 29.3 1.7Q29.35 1.75 29.4 1.88 29.45 2 29.45 2.25L29.45 2.25Q29.45 2.65 29.15 2.95 28.85 3.25 28.45 3.25L28.45 3.25ZM16.55-2.5L16.55-2.5Q20.85-2.5 23.63-5.1 26.4-7.7 26.6-13.55L26.6-13.55Q26.7-15.8 26.7-17.5 26.7-19.2 26.6-21.45L26.6-21.45Q26.5-25.35 25.18-27.8 23.85-30.25 21.63-31.38 19.4-32.5 16.55-32.5L16.55-32.5Q13.75-32.5 11.53-31.38 9.3-30.25 7.98-27.8 6.65-25.35 6.5-21.45L6.5-21.45Q6.45-19.2 6.45-17.5 6.45-15.8 6.5-13.55L6.5-13.55Q6.7-7.7 9.5-5.1 12.3-2.5 16.55-2.5ZM50.4 0.5L50.4 0.5Q46.35 0.5 43.47-1 40.6-2.5 39.05-5.6 37.5-8.7 37.5-13.55L37.5-13.55 37.5-33.85Q37.5-34.4 37.8-34.7 38.1-35 38.6-35L38.6-35 39.5-35Q40.05-35 40.35-34.7 40.65-34.4 40.65-33.85L40.65-33.85 40.65-13.4Q40.65-7.8 43.27-5.15 45.9-2.5 50.4-2.5L50.4-2.5Q54.85-2.5 57.47-5.15 60.1-7.8 60.1-13.4L60.1-13.4 60.1-33.85Q60.1-34.4 60.42-34.7 60.75-35 61.25-35L61.25-35 62.15-35Q62.65-35 62.95-34.7 63.25-34.4 63.25-33.85L63.25-33.85 63.25-13.55Q63.25-8.7 61.72-5.6 60.2-2.5 57.35-1 54.5 0.5 50.4 0.5ZM93.35 0L73.45 0Q72.95 0 72.65-0.3 72.35-0.6 72.35-1.1L72.35-1.1 72.35-33.85Q72.35-34.4 72.65-34.7 72.95-35 73.45-35L73.45-35 92.95-35Q93.5-35 93.8-34.7 94.1-34.4 94.1-33.85L94.1-33.85 94.1-33.1Q94.1-32.6 93.8-32.3 93.5-32 92.95-32L92.95-32 75.5-32 75.5-19.25 91.85-19.25Q92.4-19.25 92.7-18.95 93-18.65 93-18.1L93-18.1 93-17.35Q93-16.85 92.7-16.55 92.4-16.25 91.85-16.25L91.85-16.25 75.5-16.25 75.5-3 93.35-3Q93.9-3 94.2-2.7 94.5-2.4 94.5-1.85L94.5-1.85 94.5-1.1Q94.5-0.6 94.2-0.3 93.9 0 93.35 0L93.35 0ZM103.94 0L103.04 0Q102.54 0 102.24-0.3 101.94-0.6 101.94-1.1L101.94-1.1 101.94-33.85Q101.94-34.4 102.24-34.7 102.54-35 103.04-35L103.04-35 114.69-35Q119.94-35 123.07-32.5 126.19-30 126.19-24.9L126.19-24.9Q126.19-20.9 124.19-18.5 122.19-16.1 118.64-15.25L118.64-15.25 126.69-1.55Q126.84-1.25 126.84-1L126.84-1Q126.84-0.6 126.54-0.3 126.24 0 125.84 0L125.84 0 125.24 0Q124.44 0 124.04-0.43 123.64-0.85 123.34-1.35L123.34-1.35 115.39-14.8 105.09-14.8 105.09-1.1Q105.09-0.6 104.79-0.3 104.49 0 103.94 0L103.94 0ZM105.09-32L105.09-17.8 114.44-17.8Q118.79-17.8 120.92-19.58 123.04-21.35 123.04-24.9L123.04-24.9Q123.04-28.45 120.92-30.23 118.79-32 114.44-32L114.44-32 105.09-32ZM145.49 0L144.54 0Q144.04 0 143.74-0.3 143.44-0.6 143.44-1.1L143.44-1.1 143.44-13.35 131.24-33.35Q131.19-33.5 131.12-33.65 131.04-33.8 131.04-34L131.04-34Q131.04-34.4 131.34-34.7 131.64-35 132.04-35L132.04-35 133.04-35Q133.39-35 133.69-34.83 133.99-34.65 134.19-34.25L134.19-34.25 145.04-16.6 155.89-34.25Q156.14-34.65 156.42-34.83 156.69-35 157.04-35L157.04-35 158.04-35Q158.44-35 158.74-34.7 159.04-34.4 159.04-34L159.04-34Q159.04-33.8 158.99-33.65 158.94-33.5 158.84-33.35L158.84-33.35 146.64-13.35 146.64-1.1Q146.64-0.6 146.34-0.3 146.04 0 145.49 0L145.49 0ZM175.19 0L174.29 0Q173.79 0 173.49-0.3 173.19-0.6 173.19-1.1L173.19-1.1 173.19-32 163.29-32Q162.79-32 162.49-32.3 162.19-32.6 162.19-33.1L162.19-33.1 162.19-33.85Q162.19-34.4 162.49-34.7 162.79-35 163.29-35L163.29-35 186.19-35Q186.74-35 187.04-34.7 187.34-34.4 187.34-33.85L187.34-33.85 187.34-33.1Q187.34-32.6 187.04-32.3 186.74-32 186.19-32L186.19-32 176.34-32 176.34-1.1Q176.34-0.6 176.04-0.3 175.74 0 175.19 0L175.19 0ZM191.88 0L190.88 0Q190.49 0 190.19-0.3 189.88-0.6 189.88-1L189.88-1Q189.88-1.25 189.99-1.55L189.99-1.55 202.63-34Q202.84-34.5 203.16-34.75 203.49-35 204.09-35L204.09-35 205.78-35Q206.38-35 206.71-34.75 207.03-34.5 207.24-34L207.24-34 219.88-1.55Q219.99-1.25 219.99-1L219.99-1Q219.99-0.6 219.69-0.3 219.38 0 218.99 0L218.99 0 217.99 0Q217.49 0 217.24-0.28 216.99-0.55 216.88-0.75L216.88-0.75 213.78-8.75 196.09-8.75 192.99-0.75Q192.94-0.55 192.66-0.28 192.38 0 191.88 0L191.88 0ZM204.94-31.45L197.28-11.75 212.59-11.75 204.94-31.45ZM246.28 0L226.98 0Q226.48 0 226.18-0.3 225.88-0.6 225.88-1.1L225.88-1.1 225.88-33.9Q225.88-34.4 226.18-34.7 226.48-35 226.98-35L226.98-35 227.93-35Q228.43-35 228.73-34.7 229.03-34.4 229.03-33.9L229.03-33.9 229.03-3 246.28-3Q246.83-3 247.13-2.7 247.43-2.4 247.43-1.85L247.43-1.85 247.43-1.1Q247.43-0.6 247.13-0.3 246.83 0 246.28 0L246.28 0ZM255.28 0L254.38 0Q253.88 0 253.58-0.3 253.28-0.6 253.28-1.1L253.28-1.1 253.28-33.85Q253.28-34.4 253.58-34.7 253.88-35 254.38-35L254.38-35 255.28-35Q255.83-35 256.13-34.7 256.43-34.4 256.43-33.85L256.43-33.85 256.43-20.85 271.58-34.25Q271.78-34.4 272.23-34.7 272.68-35 273.48-35L273.48-35 274.28-35Q274.68-35 274.98-34.7 275.28-34.4 275.28-34L275.28-34Q275.28-33.6 275.03-33.35L275.03-33.35 258.08-18.25 276.08-1.7Q276.38-1.4 276.38-1L276.38-1Q276.38-0.6 276.08-0.3 275.78 0 275.38 0L275.38 0 274.53 0Q273.73 0 273.28-0.3 272.83-0.6 272.63-0.75L272.63-0.75 256.43-15.55 256.43-1.1Q256.43-0.6 256.13-0.3 255.83 0 255.28 0L255.28 0Z" opacity="1" transform="matrix(1,0,0,1,0,0)" fill="#ffa500" class="undefined-text-0" data-fill-palette-color="primary" id="text-0"></path></svg></g></svg></g><g transform="matrix(1,0,0,1,0,55.494969480483334)"><svg viewBox="0 0 316.416 16.390430976271986" height="16.390430976271986" width="316.416"><g transform="matrix(1,0,0,1,0,0)"><svg width="316.416" viewBox="2.08 -41.94 1033.96 53.559999999999995" height="16.390430976271986" data-palette-color="#ffa500"><path d="M2.08-2.47L3.69-5.88Q9.23-2.95 14.53-2.95L14.53-2.95Q20.68-2.95 21.73-6.88L21.73-6.88Q22.07-8.18 22.07-9.86L22.07-9.86 22.07-10.82Q22.07-12.52 21.83-13.57 21.58-14.62 20.8-15.28L20.8-15.28Q19.53-16.38 14.79-17.11L14.79-17.11Q10.57-17.77 8.96-18.36 7.35-18.95 6.31-19.64 5.27-20.34 4.54-21.39L4.54-21.39Q3.03-23.58 3.03-27.47L3.03-27.47 3.03-27.71Q3.03-35.77 9.72-37.35L9.72-37.35Q11.84-37.84 14.53-37.84L14.53-37.84 14.84-37.84Q21.12-37.84 25.1-36.04L25.1-36.04 23.83-32.3Q19.02-34.38 14.97-34.38L14.97-34.38 14.75-34.38Q10.28-34.38 8.59-32.69L8.59-32.69Q7.18-31.27 7.18-27.78L7.18-27.78 7.18-27.69Q7.18-23.71 9.38-22.46L9.38-22.46Q10.86-21.66 14.71-21.04 18.55-20.43 20.43-20.01 22.31-19.58 23.63-18.6L23.63-18.6Q26.37-16.55 26.37-10.82L26.37-10.82 26.37-10.5Q26.37-1.73 19.31-0.05L19.31-0.05Q17.14 0.49 15.21 0.49 13.28 0.49 11.71 0.35 10.13 0.22 8.5-0.12L8.5-0.12Q4.66-0.9 2.08-2.47L2.08-2.47ZM49.22 0.46L49.22 0.46 48.7 0.49 47.19 0.49Q38.5 0.49 35.72-4.98L35.72-4.98Q34.08-8.15 33.79-13.45L33.79-13.45Q33.66-15.94 33.66-18.87 33.66-21.8 33.84-24.43 34.01-27.05 34.51-29.17 35.01-31.3 35.92-32.92 36.84-34.55 38.33-35.64L38.33-35.64Q41.4-37.84 47.19-37.84L47.19-37.84 48.7-37.84Q57.76-37.84 60.3-32.96L60.3-32.96Q61.89-29.91 62.08-24.46L62.08-24.46Q62.18-21.8 62.18-18.37 62.18-14.94 61.9-11.77 61.62-8.59 60.64-6.13L60.64-6.13Q58.54-0.9 52.54 0.17L52.54 0.17Q55.44 3.69 60.67 7.64L60.67 7.64 57.57 10.91Q51.58 5.86 49.22 0.46ZM47.19-3.03L48.65-3.03Q51.34-3.03 53.11-3.61 54.88-4.2 55.91-5.66L55.91-5.66Q57.81-8.37 57.81-16.06L57.81-16.06 57.81-18.7Q57.81-22.39 57.61-25.27 57.42-28.15 56.56-30.13L56.56-30.13Q54.81-34.23 48.95-34.23L48.95-34.23 46.9-34.23Q40.94-34.23 39.28-30.4L39.28-30.4Q38.23-27.95 38.13-24.63 38.03-21.31 38.03-18.7L38.03-18.7 38.03-16.06Q38.03-8.86 40.18-5.91L40.18-5.91Q42.26-3.03 47.19-3.03L47.19-3.03ZM72.33 0L72.33-37.35 76.48-37.35 76.48-3.59 91.28-3.59 91.28 0 72.33 0ZM122.35-25.73L122.35-25.73Q118.37-25.73 113.66-22.92L113.66-22.92 113.66 0 109.61 0 109.61-29.05 113.17-29.05 113.56-26.05Q117.84-29.54 123.13-29.54L123.13-29.54Q126.16-29.54 127.91-28.67 129.65-27.81 130.43-25.83L130.43-25.83Q135.83-29.54 140.69-29.54L140.69-29.54Q145.28-29.54 147.06-27.44L147.06-27.44Q148.77-25.42 148.77-20.24L148.77-20.24 148.77 0 144.67 0 144.67-19.48Q144.67-23 143.98-24.01 143.3-25.02 142.36-25.38 141.42-25.73 140.16-25.73 138.91-25.73 137.8-25.5 136.68-25.27 135.54-24.88L135.54-24.88Q133.22-24.07 131.09-22.83L131.09-22.83Q131.22-21.36 131.22-20.24L131.22-20.24 131.22 0 127.11 0 127.11-19.48Q127.11-23 126.43-24.01 125.75-25.02 124.81-25.38 123.87-25.73 122.35-25.73ZM181.77-19.41L181.77-10.3Q181.77-5.44 182.24-0.2L182.24-0.2 178.63 0.1 178.01-3.3Q174.91-0.81 169.81 0.17L169.81 0.17Q168.15 0.49 166.86 0.49 165.56 0.49 164.57 0.37 163.59 0.24 162.67-0.11 161.76-0.46 160.97-1.1 160.19-1.73 159.61-2.78L159.61-2.78Q158.36-5 158.36-8.12 158.36-11.23 158.81-12.95 159.26-14.67 160.31-15.82L160.31-15.82Q162.39-18.09 167.3-18.09 172.2-18.09 177.77-16.24L177.77-16.24 177.77-19.41Q177.77-24.71 173.4-25.68L173.4-25.68Q171.98-26 170.15-26L170.15-26Q165.98-26 161.49-24.34L161.49-24.34 160.58-27.86Q161.83-28.69 166.93-29.35L166.93-29.35Q168.54-29.54 170.8-29.54 173.06-29.54 175.23-29 177.4-28.47 178.84-27.25L178.84-27.25Q181.77-24.83 181.77-19.41L181.77-19.41ZM177.67-13.18L177.67-13.18Q171.96-14.62 167.13-14.62L167.13-14.62Q164.15-14.62 163.17-12.92L163.17-12.92Q162.51-11.72 162.51-9.38 162.51-7.03 162.77-5.98 163.02-4.93 163.61-4.25L163.61-4.25Q164.76-2.95 167.39-2.95L167.39-2.95Q171.52-2.95 175.57-5.08L175.57-5.08Q176.82-5.71 177.82-6.49L177.82-6.49Q177.67-9.13 177.67-13.18ZM212.29 0.1L211.7-3.25Q206.55 0.49 201.23 0.49L201.23 0.49Q195.35 0.49 193.39-3.83L193.39-3.83Q192.27-6.27 192.14-9 192-11.72 192-13.78 192-15.84 192.04-17.94 192.07-20.04 192.34-21.83 192.61-23.61 193.19-25.04 193.76-26.46 194.83-27.47L194.83-27.47Q197.06-29.54 202.17-29.54 207.28-29.54 211.41-27.76L211.41-27.76 211.41-41.55 215.46-41.94 215.46-13.35Q215.46-4.93 215.93-0.2L215.93-0.2 212.29 0.1ZM211.39-13.55L211.41-24.41Q207.02-25.88 202.91-25.88L202.91-25.88Q199.94-25.88 198.98-25.39 198.03-24.9 197.53-24.12 197.03-23.34 196.71-21.97L196.71-21.97Q196.15-19.41 196.15-13.53L196.15-13.53 196.15-12.99Q196.15-7.5 197.35-5.4L197.35-5.4Q198.64-3.17 202.16-3.17L202.16-3.17 202.52-3.17Q205.89-3.17 209.7-5.32L209.7-5.32Q210.75-5.91 211.51-6.49L211.51-6.49 211.51-6.54Q211.39-8.81 211.39-13.55L211.39-13.55ZM247.69-5.03L248.88-1.54Q243.83 0.49 237.73 0.49L237.73 0.49Q234.19 0.49 231.72-0.24L231.72-0.24Q227.79-1.37 226.5-4.88L226.5-4.88Q225.3-8.18 225.3-14.65L225.3-14.65 225.3-15.89Q225.3-23.63 228.52-26.76L228.52-26.76Q231.43-29.54 238.21-29.54L238.21-29.54Q244.83-29.54 247.25-26.27L247.25-26.27Q248.42-24.68 248.8-22.42 249.18-20.17 249.18-18.12L249.18-18.12Q249.18-14.92 249.03-13.16L249.03-13.16Q245.59-13.01 242.85-13.01L242.85-13.01Q242.85-13.01 238.92-13.01L238.92-13.01Q232.77-13.01 229.45-13.55L229.45-13.55Q229.45-7.93 230.87-5.71L230.87-5.71Q232.6-3 237.78-3 242.95-3 247.69-5.03L247.69-5.03ZM229.45-16.41L245.05-16.41 245.05-18.75Q245.05-22.58 243.56-24.22L243.56-24.22Q241.9-26.05 237.82-26.05L237.82-26.05Q232.94-26.05 231.16-23.93L231.16-23.93Q229.45-21.9 229.45-16.41L229.45-16.41ZM270.19-2.39L271.95-5.76Q276.98-2.95 282.06-2.95L282.06-2.95Q286.28-2.95 287.01-5.96L287.01-5.96Q287.26-6.98 287.26-8.46 287.26-9.94 286.92-10.75 286.57-11.57 285.77-11.98 284.96-12.38 283.63-12.57 282.3-12.77 280.25-13.12 278.2-13.48 276.49-13.92 274.78-14.36 273.59-15.19L273.59-15.19Q271.05-16.97 271.14-21.19L271.14-21.19 271.14-21.8Q271.14-26.25 274.07-28.13L274.07-28.13Q276.91-29.98 283.42-29.39L283.42-29.39Q287.87-28.98 290.5-27.86L290.5-27.86 289.36-24.17Q286.43-25.42 282.33-25.98L282.33-25.98Q281.06-26.15 279.95-26.15 278.83-26.15 277.93-25.98 277.03-25.81 276.42-25.34L276.42-25.34Q275.25-24.39 275.2-21.8L275.2-21.8Q275.12-18.75 276.91-17.92L276.91-17.92Q278.62-17.11 280.96-16.81 283.3-16.5 284.79-16.27 286.28-16.04 287.5-15.65 288.72-15.26 289.6-14.4L289.6-14.4Q291.43-12.67 291.38-8.37L291.38-8.37Q291.26-0.88 285.13 0.17L285.13 0.17Q283.28 0.49 281.42 0.49 279.57 0.49 278.02 0.26 276.47 0.02 275.05-0.39L275.05-0.39Q272.37-1.15 270.19-2.39L270.19-2.39ZM303.95-36.01L303.95-36.01Q302.32-36.01 301.85-36.47L301.85-36.47Q301.12-37.23 301.12-38.56 301.12-39.89 301.28-40.47 301.44-41.04 301.76-41.36L301.76-41.36Q302.34-41.94 303.55-41.94 304.76-41.94 305.29-41.82 305.81-41.7 306.15-41.36L306.15-41.36Q306.74-40.77 306.74-39.44 306.74-38.11 306.6-37.54 306.47-36.96 306.15-36.62L306.15-36.62Q305.54-36.01 303.95-36.01ZM302.03 0L301.98-29.05 305.98-29.05 305.98 0 302.03 0ZM330.51-25.73L330.51-25.73Q326.54-25.73 321.82-22.92L321.82-22.92 321.82 0 317.77 0 317.77-29.05 321.33-29.05 321.73-26.05Q326-29.54 331.3-29.54L331.3-29.54Q334.32-29.54 336.07-28.67 337.81-27.81 338.6-25.83L338.6-25.83Q343.99-29.54 348.85-29.54L348.85-29.54Q353.44-29.54 355.22-27.44L355.22-27.44Q356.93-25.42 356.93-20.24L356.93-20.24 356.93 0 352.83 0 352.83-19.48Q352.83-23 352.15-24.01 351.46-25.02 350.52-25.38 349.58-25.73 348.32-25.73 347.07-25.73 345.96-25.5 344.85-25.27 343.7-24.88L343.7-24.88Q341.38-24.07 339.25-22.83L339.25-22.83Q339.38-21.36 339.38-20.24L339.38-20.24 339.38 0 335.28 0 335.28-19.48Q335.28-23 334.59-24.01 333.91-25.02 332.97-25.38 332.03-25.73 330.51-25.73ZM371.6-1.73L371.6-1.73 371.6 11.11 367.55 11.11 367.55-29.05 370.84-29.05 371.31-26.05Q374.16-28.2 378.75-29.2L378.75-29.2Q380.41-29.54 382.37-29.54 384.32-29.54 385.82-29.03 387.32-28.52 388.3-27.6 389.28-26.68 389.81-25.42 390.35-24.15 390.62-22.66L390.62-22.66Q390.96-20.61 390.96-16.11L390.96-16.11 390.96-15.55Q390.96-9.84 390.57-7.64 390.18-5.44 389.55-4.02 388.91-2.59 387.79-1.59L387.79-1.59Q385.47 0.49 380.61 0.49 375.75 0.49 371.6-1.73ZM371.6-22.92L371.6-5.08Q375.75-3.17 380.32-3.17L380.32-3.17Q383.3-3.17 384.66-4.27L384.66-4.27Q386.52-5.79 386.74-11.33L386.74-11.33Q386.81-13.16 386.81-15.53L386.81-15.53 386.81-16.06Q386.81-21.68 385.83-23.58L385.83-23.58Q384.74-25.76 381.29-25.76L381.29-25.76 380.93-25.76Q377.34-25.76 373.48-23.97L373.48-23.97Q372.36-23.46 371.6-22.92L371.6-22.92ZM401.92 0L401.87-41.5 405.9-41.85 405.9 0 401.92 0ZM439.22-5.03L440.42-1.54Q435.37 0.49 429.26 0.49L429.26 0.49Q425.72 0.49 423.26-0.24L423.26-0.24Q419.33-1.37 418.03-4.88L418.03-4.88Q416.84-8.18 416.84-14.65L416.84-14.65 416.84-15.89Q416.84-23.63 420.06-26.76L420.06-26.76Q422.96-29.54 429.75-29.54L429.75-29.54Q436.37-29.54 438.78-26.27L438.78-26.27Q439.96-24.68 440.33-22.42 440.71-20.17 440.71-18.12L440.71-18.12Q440.71-14.92 440.57-13.16L440.57-13.16Q437.12-13.01 434.39-13.01L434.39-13.01Q434.39-13.01 430.46-13.01L430.46-13.01Q424.31-13.01 420.99-13.55L420.99-13.55Q420.99-7.93 422.4-5.71L422.4-5.71Q424.13-3 429.31-3 434.49-3 439.22-5.03L439.22-5.03ZM420.99-16.41L436.59-16.41 436.59-18.75Q436.59-22.58 435.1-24.22L435.1-24.22Q433.44-26.05 429.36-26.05L429.36-26.05Q424.48-26.05 422.69-23.93L422.69-23.93Q420.99-21.9 420.99-16.41L420.99-16.41ZM469.3 0L460.26-29.05 464.61-29.05 470.76-7.71 471.86-3.05 472.67-6.96 479.01-29.05 483.02-29.05 489.27-7.71 490.34-3 491.12-6.98 497.18-29.05 501.57-29.05 492.98 0 487.63 0 482.06-18.63 480.94-24.34 479.94-18.63 474.4 0 469.3 0ZM512.12-36.01L512.12-36.01Q510.48-36.01 510.02-36.47L510.02-36.47Q509.28-37.23 509.28-38.56 509.28-39.89 509.44-40.47 509.6-41.04 509.92-41.36L509.92-41.36Q510.5-41.94 511.71-41.94 512.92-41.94 513.45-41.82 513.97-41.7 514.31-41.36L514.31-41.36Q514.9-40.77 514.9-39.44 514.9-38.11 514.76-37.54 514.63-36.96 514.31-36.62L514.31-36.62Q513.7-36.01 512.12-36.01ZM510.19 0L510.14-29.05 514.14-29.05 514.14 0 510.19 0ZM538.8-4.57L540.19-1.39Q536.21 0.49 532.84 0.49L532.84 0.49Q526.74 0.49 525.91-4.74L525.91-4.74Q525.71-5.98 525.71-8.35L525.71-8.35 525.71-25.66 522.2-25.66 522.2-28.66 525.71-29.05 526.35-35.69 529.74-35.69 529.74-29.05 538.21-29.05 538.21-25.66 529.74-25.66 529.74-8.42Q529.74-5.42 530.18-4.59L530.18-4.59Q530.99-3.08 533.4-3.08 535.82-3.08 538.8-4.57L538.8-4.57ZM560.45-25.76L560.45-25.76Q555.59-25.76 550.81-22.95L550.81-22.95 550.81 0 546.75 0 546.75-41.55 550.71-41.94 550.71-26.05Q553.22-28.2 557.25-29.15L557.25-29.15Q558.86-29.54 561.06-29.54 563.26-29.54 564.92-29.04 566.58-28.54 567.56-27.44L567.56-27.44Q569.31-25.46 569.31-20.24L569.31-20.24 569.31 0 565.21 0 565.21-19.51Q565.21-23.02 564.53-24.04 563.84-25.05 562.9-25.4 561.96-25.76 560.45-25.76ZM606.25-25.73L606.25-25.73Q601.49-25.73 596.55-22.92L596.55-22.92 596.55 0 592.5 0 592.5-29.05 596.07-29.05 596.46-26.05Q599.12-28.22 603.07-29.15L603.07-29.15Q604.68-29.54 606.86-29.54 609.03-29.54 610.69-29.04 612.35-28.54 613.33-27.44L613.33-27.44Q615.11-25.46 615.11-20.24L615.11-20.24 615.11 0 611.01 0 611.01-19.48Q611.01-23 610.32-24.01 609.64-25.02 608.7-25.38 607.76-25.73 606.25-25.73ZM648.04-19.41L648.04-10.3Q648.04-5.44 648.5-0.2L648.5-0.2 644.89 0.1 644.28-3.3Q641.18-0.81 636.08 0.17L636.08 0.17Q634.42 0.49 633.12 0.49 631.83 0.49 630.84 0.37 629.85 0.24 628.94-0.11 628.02-0.46 627.24-1.1 626.46-1.73 625.87-2.78L625.87-2.78Q624.63-5 624.63-8.12 624.63-11.23 625.08-12.95 625.53-14.67 626.58-15.82L626.58-15.82Q628.66-18.09 633.56-18.09 638.47-18.09 644.04-16.24L644.04-16.24 644.04-19.41Q644.04-24.71 639.67-25.68L639.67-25.68Q638.25-26 636.42-26L636.42-26Q632.24-26 627.75-24.34L627.75-24.34 626.85-27.86Q628.09-28.69 633.2-29.35L633.2-29.35Q634.81-29.54 637.07-29.54 639.32-29.54 641.5-29 643.67-28.47 645.11-27.25L645.11-27.25Q648.04-24.83 648.04-19.41L648.04-19.41ZM643.94-13.18L643.94-13.18Q638.23-14.62 633.39-14.62L633.39-14.62Q630.41-14.62 629.44-12.92L629.44-12.92Q628.78-11.72 628.78-9.38 628.78-7.03 629.03-5.98 629.29-4.93 629.88-4.25L629.88-4.25Q631.02-2.95 633.66-2.95L633.66-2.95Q637.79-2.95 641.84-5.08L641.84-5.08Q643.08-5.71 644.09-6.49L644.09-6.49Q643.94-9.13 643.94-13.18ZM672.01-4.57L673.4-1.39Q669.42 0.49 666.06 0.49L666.06 0.49Q659.95 0.49 659.12-4.74L659.12-4.74Q658.93-5.98 658.93-8.35L658.93-8.35 658.93-25.66 655.41-25.66 655.41-28.66 658.93-29.05 659.56-35.69 662.96-35.69 662.96-29.05 671.43-29.05 671.43-25.66 662.96-25.66 662.96-8.42Q662.96-5.42 663.39-4.59L663.39-4.59Q664.2-3.08 666.62-3.08 669.03-3.08 672.01-4.57L672.01-4.57ZM701.92-29.05L701.92-12.79Q701.92-4.74 702.38-0.2L702.38-0.2 698.74 0.1 698.16-3.34Q695.3-0.98 691.49 0.07L691.49 0.07Q689.98 0.49 687.89 0.49 685.8 0.49 684.16-0.01 682.51-0.51 681.53-1.61L681.53-1.61Q679.75-3.59 679.75-8.81L679.75-8.81 679.75-29.05 683.85-29.05 683.85-9.47Q683.85-5.96 684.53-4.94 685.22-3.93 686.16-3.58 687.1-3.22 688.39-3.22 689.69-3.22 690.89-3.43 692.1-3.64 693.32-4.03L693.32-4.03Q695.89-4.86 697.96-6.3L697.96-6.3 697.96-6.32Q697.86-8.18 697.86-13.55L697.86-13.55 697.86-29.05 701.92-29.05ZM723.67-25.51L723.67-25.51Q720.54-25.51 717.3-22.39L717.3-22.39 717.3 0 713.24 0 713.24-29.05 716.81-29.05 717.2-25.2Q718.35-26.98 719.68-27.98 721.01-28.98 721.86-29.2L721.86-29.2Q723.08-29.54 724.18-29.54 725.28-29.54 726.94-29.1L726.94-29.1 726.57-25.22Q725.33-25.51 723.67-25.51ZM756.33-19.41L756.33-10.3Q756.33-5.44 756.8-0.2L756.8-0.2 753.18 0.1 752.57-3.3Q749.47-0.81 744.37 0.17L744.37 0.17Q742.71 0.49 741.41 0.49 740.12 0.49 739.13 0.37 738.14 0.24 737.23-0.11 736.31-0.46 735.53-1.1 734.75-1.73 734.16-2.78L734.16-2.78Q732.92-5 732.92-8.12 732.92-11.23 733.37-12.95 733.82-14.67 734.87-15.82L734.87-15.82Q736.95-18.09 741.85-18.09 746.76-18.09 752.33-16.24L752.33-16.24 752.33-19.41Q752.33-24.71 747.96-25.68L747.96-25.68Q746.54-26 744.71-26L744.71-26Q740.54-26 736.04-24.34L736.04-24.34 735.14-27.86Q736.39-28.69 741.49-29.35L741.49-29.35Q743.1-29.54 745.36-29.54 747.62-29.54 749.79-29 751.96-28.47 753.4-27.25L753.4-27.25Q756.33-24.83 756.33-19.41L756.33-19.41ZM752.23-13.18L752.23-13.18Q746.52-14.62 741.68-14.62L741.68-14.62Q738.7-14.62 737.73-12.92L737.73-12.92Q737.07-11.72 737.07-9.38 737.07-7.03 737.33-5.98 737.58-4.93 738.17-4.25L738.17-4.25Q739.31-2.95 741.95-2.95L741.95-2.95Q746.08-2.95 750.13-5.08L750.13-5.08Q751.38-5.71 752.38-6.49L752.38-6.49Q752.23-9.13 752.23-13.18ZM768.32 0L768.27-41.5 772.3-41.85 772.3 0 768.32 0ZM797.46 0L797.41-41.5 801.44-41.85 801.44 0 797.46 0ZM835.45-19.41L835.45-10.3Q835.45-5.44 835.91-0.2L835.91-0.2 832.3 0.1 831.69-3.3Q828.59-0.81 823.48 0.17L823.48 0.17Q821.82 0.49 820.53 0.49 819.24 0.49 818.25 0.37 817.26 0.24 816.34-0.11 815.43-0.46 814.65-1.1 813.87-1.73 813.28-2.78L813.28-2.78Q812.03-5 812.03-8.12 812.03-11.23 812.49-12.95 812.94-14.67 813.99-15.82L813.99-15.82Q816.06-18.09 820.97-18.09 825.88-18.09 831.44-16.24L831.44-16.24 831.44-19.41Q831.44-24.71 827.07-25.68L827.07-25.68Q825.66-26 823.83-26L823.83-26Q819.65-26 815.16-24.34L815.16-24.34 814.26-27.86Q815.5-28.69 820.6-29.35L820.6-29.35Q822.22-29.54 824.47-29.54 826.73-29.54 828.9-29 831.08-28.47 832.52-27.25L832.52-27.25Q835.45-24.83 835.45-19.41L835.45-19.41ZM831.35-13.18L831.35-13.18Q825.63-14.62 820.8-14.62L820.8-14.62Q817.82-14.62 816.84-12.92L816.84-12.92Q816.18-11.72 816.18-9.38 816.18-7.03 816.44-5.98 816.7-4.93 817.28-4.25L817.28-4.25Q818.43-2.95 821.07-2.95L821.07-2.95Q825.19-2.95 829.25-5.08L829.25-5.08Q830.49-5.71 831.49-6.49L831.49-6.49Q831.35-9.13 831.35-13.18ZM860.25-25.73L860.25-25.73Q855.49-25.73 850.56-22.92L850.56-22.92 850.56 0 846.5 0 846.5-29.05 850.07-29.05 850.46-26.05Q853.12-28.22 857.08-29.15L857.08-29.15Q858.69-29.54 860.86-29.54 863.03-29.54 864.69-29.04 866.35-28.54 867.33-27.44L867.33-27.44Q869.11-25.46 869.11-20.24L869.11-20.24 869.11 0 865.01 0 865.01-19.48Q865.01-23 864.33-24.01 863.64-25.02 862.7-25.38 861.76-25.73 860.25-25.73ZM898.5-27.05L898.5-27.05 898.89-29.05 902.41-29.05 902.43-0.54Q902.43 5.74 899.97 8.59L899.97 8.59Q897.33 11.62 891.06 11.62L891.06 11.62Q886.17 11.62 882.39 10.3L882.39 10.3Q881.44 9.99 880.93 9.72L880.93 9.72 882.2 6.27Q882.63 6.42 883.49 6.75 884.34 7.08 885.54 7.4L885.54 7.4Q888.57 8.2 891.09 8.2 893.62 8.2 894.99 7.69 896.36 7.18 897.11 6.1L897.11 6.1Q898.38 4.3 898.38-0.46L898.38-0.46 898.38-2.78Q893.72 0.49 888.52 0.49L888.52 0.49Q882.44 0.49 880.41-3.83L880.41-3.83Q879.24-6.27 879.05-10.01L879.05-10.01Q878.97-11.72 878.97-13.78 878.97-15.84 879.01-17.94 879.05-20.04 879.31-21.83 879.58-23.61 880.16-25.04 880.73-26.46 881.8-27.47L881.8-27.47Q884.03-29.54 888.65-29.54 893.28-29.54 898.5-27.05ZM898.38-6.08L898.38-23.68Q893.99-25.88 889.89-25.88L889.89-25.88Q886.91-25.88 885.96-25.39 885-24.9 884.5-24.12 884-23.34 883.68-21.97L883.68-21.97Q883.12-19.41 883.12-13.53L883.12-13.53 883.12-12.99Q883.12-7.57 884.47-5.4L884.47-5.4Q885.81-3.17 889.37-3.17L889.37-3.17 889.74-3.17Q893.11-3.17 896.62-5.03L896.62-5.03Q897.63-5.54 898.38-6.08L898.38-6.08ZM935.07-29.05L935.07-12.79Q935.07-4.74 935.54-0.2L935.54-0.2 931.9 0.1 931.31-3.34Q928.46-0.98 924.65 0.07L924.65 0.07Q923.14 0.49 921.05 0.49 918.96 0.49 917.31-0.01 915.66-0.51 914.69-1.61L914.69-1.61Q912.91-3.59 912.91-8.81L912.91-8.81 912.91-29.05 917.01-29.05 917.01-9.47Q917.01-5.96 917.69-4.94 918.37-3.93 919.31-3.58 920.25-3.22 921.55-3.22 922.84-3.22 924.05-3.43 925.26-3.64 926.48-4.03L926.48-4.03Q929.04-4.86 931.12-6.3L931.12-6.3 931.12-6.32Q931.02-8.18 931.02-13.55L931.02-13.55 931.02-29.05 935.07-29.05ZM968.64-19.41L968.64-10.3Q968.64-5.44 969.1-0.2L969.1-0.2 965.49 0.1 964.88-3.3Q961.78-0.81 956.68 0.17L956.68 0.17Q955.02 0.49 953.72 0.49 952.43 0.49 951.44 0.37 950.45 0.24 949.54-0.11 948.62-0.46 947.84-1.1 947.06-1.73 946.47-2.78L946.47-2.78Q945.23-5 945.23-8.12 945.23-11.23 945.68-12.95 946.13-14.67 947.18-15.82L947.18-15.82Q949.26-18.09 954.16-18.09 959.07-18.09 964.64-16.24L964.64-16.24 964.64-19.41Q964.64-24.71 960.27-25.68L960.27-25.68Q958.85-26 957.02-26L957.02-26Q952.84-26 948.35-24.34L948.35-24.34 947.45-27.86Q948.69-28.69 953.8-29.35L953.8-29.35Q955.41-29.54 957.67-29.54 959.92-29.54 962.1-29 964.27-28.47 965.71-27.25L965.71-27.25Q968.64-24.83 968.64-19.41L968.64-19.41ZM964.54-13.18L964.54-13.18Q958.83-14.62 953.99-14.62L953.99-14.62Q951.01-14.62 950.04-12.92L950.04-12.92Q949.38-11.72 949.38-9.38 949.38-7.03 949.63-5.98 949.89-4.93 950.48-4.25L950.48-4.25Q951.62-2.95 954.26-2.95L954.26-2.95Q958.39-2.95 962.44-5.08L962.44-5.08Q963.68-5.71 964.69-6.49L964.69-6.49Q964.54-9.13 964.54-13.18ZM998.4-27.05L998.4-27.05 998.79-29.05 1002.31-29.05 1002.33-0.54Q1002.33 5.74 999.86 8.59L999.86 8.59Q997.23 11.62 990.95 11.62L990.95 11.62Q986.07 11.62 982.29 10.3L982.29 10.3Q981.33 9.99 980.82 9.72L980.82 9.72 982.09 6.27Q982.53 6.42 983.38 6.75 984.24 7.08 985.43 7.4L985.43 7.4Q988.46 8.2 990.99 8.2 993.52 8.2 994.88 7.69 996.25 7.18 997.01 6.1L997.01 6.1Q998.28 4.3 998.28-0.46L998.28-0.46 998.28-2.78Q993.61 0.49 988.41 0.49L988.41 0.49Q982.33 0.49 980.31-3.83L980.31-3.83Q979.14-6.27 978.94-10.01L978.94-10.01Q978.87-11.72 978.87-13.78 978.87-15.84 978.9-17.94 978.94-20.04 979.21-21.83 979.48-23.61 980.05-25.04 980.63-26.46 981.7-27.47L981.7-27.47Q983.92-29.54 988.55-29.54 993.17-29.54 998.4-27.05ZM998.28-6.08L998.28-23.68Q993.88-25.88 989.78-25.88L989.78-25.88Q986.8-25.88 985.85-25.39 984.9-24.9 984.4-24.12 983.9-23.34 983.58-21.97L983.58-21.97Q983.02-19.41 983.02-13.53L983.02-13.53 983.02-12.99Q983.02-7.57 984.36-5.4L984.36-5.4Q985.7-3.17 989.27-3.17L989.27-3.17 989.63-3.17Q993-3.17 996.52-5.03L996.52-5.03Q997.52-5.54 998.28-6.08L998.28-6.08ZM1034.55-5.03L1035.75-1.54Q1030.7 0.49 1024.59 0.49L1024.59 0.49Q1021.05 0.49 1018.59-0.24L1018.59-0.24Q1014.66-1.37 1013.36-4.88L1013.36-4.88Q1012.17-8.18 1012.17-14.65L1012.17-14.65 1012.17-15.89Q1012.17-23.63 1015.39-26.76L1015.39-26.76Q1018.29-29.54 1025.08-29.54L1025.08-29.54Q1031.7-29.54 1034.11-26.27L1034.11-26.27Q1035.29-24.68 1035.66-22.42 1036.04-20.17 1036.04-18.12L1036.04-18.12Q1036.04-14.92 1035.9-13.16L1035.9-13.16Q1032.45-13.01 1029.72-13.01L1029.72-13.01Q1029.72-13.01 1025.79-13.01L1025.79-13.01Q1019.64-13.01 1016.32-13.55L1016.32-13.55Q1016.32-7.93 1017.73-5.71L1017.73-5.71Q1019.47-3 1024.64-3 1029.82-3 1034.55-5.03L1034.55-5.03ZM1016.32-16.41L1031.92-16.41 1031.92-18.75Q1031.92-22.58 1030.43-24.22L1030.43-24.22Q1028.77-26.05 1024.69-26.05L1024.69-26.05Q1019.81-26.05 1018.03-23.93L1018.03-23.93Q1016.32-21.9 1016.32-16.41L1016.32-16.41Z" opacity="1" transform="matrix(1,0,0,1,0,0)" fill="#ffa500" class="undefined-text-1" data-fill-palette-color="secondary" id="text-1"></path></svg></g></svg></g></svg></g></svg></g><g></g></svg></g></svg></g><g mask="url(#6697aab9-87ef-400e-bf26-cdce674223fe)"><g transform="matrix(3.337598344812566, 0, 0, 3.337598344812566, 56.81717021308944, 1)"><svg xmlns="http://www.w3.org/2000/svg" xmlns:xlink="http://www.w3.org/1999/xlink" version="1.1" x="0" y="0" viewBox="7.786000000000006 13.361 84.45763403854137 73.46600000000001" enable-background="new 0 0 100 100" xml:space="preserve" height="73.46600000000001" width="84.45763403854137" class="icon-none" data-fill-palette-color="accent" id="none"><path d="M91.609 85.407c-4.207-5.085-3.187-12-2.187-15.735 0.942-2.331 1.472-4.812 1.472-7.406 0-4.633-1.631-8.939-4.414-12.549C83.77 66.564 67.068 79.609 46.761 79.93c4.665 3.282 10.648 5.26 17.174 5.26 4.771 0 9.237-1.063 13.119-2.91 5.959 3.998 13.379 4.547 13.379 4.547C93.641 86.825 91.609 85.407 91.609 85.407z" fill="#ffa500" data-fill-palette-color="accent"></path><path d="M83.426 44.923c0-17.401-16.789-31.562-37.421-31.562-20.635 0-37.422 14.161-37.422 31.562 0 3.4 0.673 6.804 2.003 10.106 1.544 5.688 3.072 15.9-2.8 23.798 1.994-0.214 10.954-1.419 18.195-6.271l0.823-0.55 0.894 0.423c5.578 2.651 11.908 4.057 18.307 4.057C66.637 76.486 83.426 62.324 83.426 44.923z" fill="#ffa500" data-fill-palette-color="accent"></path></svg></g></g></svg></g><defs><mask id="6697aab9-87ef-400e-bf26-cdce674223fe"><rect width="640" height="400" fill="white"></rect><rect width="348.05760000000004" height="93.08317537524671" fill="black" x="145.97119999999998" y="153.45841231237665" id="transform-me" transform="matrix(1,0,0,1,-122.24000000000001,-76.4)"></rect></mask></defs></svg><rect width="395.52" height="247.2" fill="none" stroke="none" visibility="hidden"></rect></g></svg></g></svg>