<svg xmlns="http://www.w3.org/2000/svg" version="1.1" xmlns:xlink="http://www.w3.org/1999/xlink" xmlns:svgjs="http://svgjs.dev/svgjs" width="1000" height="1000" viewBox="0 0 1000 1000"><rect width="1000" height="1000" fill="#ffa500"></rect><g transform="matrix(0.7,0,0,0.7,149.57575757575756,295.4528840647274)"><svg viewBox="0 0 396 232" data-background-color="#ffa500" preserveAspectRatio="xMidYMid meet" height="585" width="1000" xmlns="http://www.w3.org/2000/svg" xmlns:xlink="http://www.w3.org/1999/xlink"><g id="tight-bounds" transform="matrix(1,0,0,1,0.2400000000000091,-0.11494276688058847)"><svg viewBox="0 0 395.52 232.22988530156036" height="232.22988530156036" width="395.52"><g><svg viewBox="0 0 397.4975999999999 233.39103472806812" height="232.22988530156036" width="395.52"><g><rect width="397.4975999999999" height="4.7844813156143555" x="0" y="130.6254305207375" fill="#ffffff" opacity="1" stroke-width="0" stroke="transparent" fill-opacity="1" class="rect-o-0" data-fill-palette-color="primary" rx="1%" id="o-0" data-palette-color="#ffffff"></rect></g><g transform="matrix(1,0,0,1,0.9887999999999693,147.9347320342952)"><svg viewBox="0 0 395.52 85.45630269377291" height="85.45630269377291" width="395.52"><g id="textblocktransform"><svg viewBox="0 0 395.52 85.45630269377291" height="85.45630269377291" width="395.52" id="textblock"><g><svg viewBox="0 0 395.52 53.05418677859392" height="53.05418677859392" width="395.52"><g transform="matrix(1,0,0,1,0,0)"><svg width="395.52" viewBox="1.9000000953674316 -37.95000076293945 285.8800048828125 38.35000228881836" height="53.05418677859392" data-palette-color="#ffffff"><path d="M1.9-18.1L1.9-18.1Q1.9-21.85 3.35-25.23 4.8-28.6 7.3-31.15 9.8-33.7 13.15-35.18 16.5-36.65 20.35-36.65L20.35-36.65Q24.15-36.65 27.53-35.18 30.9-33.7 33.45-31.15 36-28.6 37.48-25.23 38.95-21.85 38.95-18.1L38.95-18.1Q38.95-14.25 37.6-10.9 36.25-7.55 33.85-4.75L33.85-4.75 40.1-5.2 40.1 0 24.25 0Q23.25 0.2 22.3 0.3 21.35 0.4 20.35 0.4L20.35 0.4Q16.5 0.4 13.15-1.05 9.8-2.5 7.3-5.03 4.8-7.55 3.35-10.9 1.9-14.25 1.9-18.1ZM7.35-18.05L7.35-18.05Q7.35-15.3 8.38-12.88 9.4-10.45 11.18-8.65 12.95-6.85 15.35-5.8 17.75-4.75 20.5-4.75L20.5-4.75Q23.2-4.75 25.58-5.8 27.95-6.85 29.73-8.65 31.5-10.45 32.52-12.88 33.55-15.3 33.55-18.1L33.55-18.1Q33.55-20.85 32.5-23.28 31.45-25.7 29.68-27.5 27.9-29.3 25.5-30.35 23.1-31.4 20.4-31.4L20.4-31.4Q17.7-31.4 15.3-30.35 12.9-29.3 11.15-27.5 9.4-25.7 8.38-23.25 7.35-20.8 7.35-18.05ZM58.95 0.4L58.95 0.4Q56.05 0.4 53.55-0.55 51.05-1.5 49.17-3.23 47.3-4.95 46.22-7.38 45.15-9.8 45.15-12.8L45.15-12.8 45.15-36.25 50.65-36.25 50.65-12.95Q50.65-11.2 51.27-9.73 51.9-8.25 53.02-7.13 54.15-6 55.65-5.38 57.15-4.75 58.95-4.75L58.95-4.75Q60.7-4.75 62.22-5.38 63.75-6 64.87-7.13 66-8.25 66.65-9.73 67.3-11.2 67.3-12.95L67.3-12.95 67.3-36.25 72.8-36.25 72.8-12.8Q72.8-9.8 71.72-7.38 70.65-4.95 68.77-3.23 66.9-1.5 64.37-0.55 61.85 0.4 58.95 0.4ZM105.8 0L81.3 0 81.3-36.25 105.09-36.25 105.09-31.3 86.8-31.3 86.8-20.7 103.09-20.7 103.09-15.65 86.8-15.65 86.8-5.05 105.8-5.05 105.8 0ZM117.64 0L112.14 0 112.14-36.25 122.04-36.25Q124.89-36.25 127.27-35.5 129.64-34.75 131.37-33.27 133.09-31.8 134.04-29.68 134.99-27.55 134.99-24.8L134.99-24.8Q134.99-23.3 134.69-21.83 134.39-20.35 133.72-18.98 133.04-17.6 131.99-16.43 130.94-15.25 129.44-14.45L129.44-14.45Q131.44-11.3 133.79-7.48 136.14-3.65 138.54 0L138.54 0 131.99 0Q130.99-1.55 129.92-3.25 128.84-4.95 127.77-6.63 126.69-8.3 125.67-9.93 124.64-11.55 123.74-12.95L123.74-12.95 122.74-12.95 117.64-12.95 117.64 0ZM117.64-31.15L117.64-18.1 122.59-18.1Q124.59-18.1 125.94-18.78 127.29-19.45 128.07-20.45 128.84-21.45 129.17-22.6 129.49-23.75 129.49-24.7L129.49-24.7Q129.49-25.65 129.17-26.78 128.84-27.9 128.04-28.88 127.24-29.85 125.92-30.5 124.59-31.15 122.64-31.15L122.64-31.15 117.64-31.15ZM169.59-36.25L156.24-11.95 156.24 0 150.74 0 150.74-11.95Q150.39-12.5 149.37-14.35 148.34-16.2 146.97-18.73 145.59-21.25 144.02-24.1 142.44-26.95 141.06-29.48 139.69-32 138.66-33.85 137.64-35.7 137.29-36.25L137.29-36.25 143.49-36.25Q143.94-35.5 145.09-33.38 146.24-31.25 147.64-28.58 149.04-25.9 150.49-23.18 151.94-20.45 152.94-18.5L152.94-18.5 153.49-16.85Q153.69-17.25 153.84-17.68 153.99-18.1 154.14-18.5L154.14-18.5Q155.19-20.45 156.59-23.18 157.99-25.9 159.37-28.58 160.74-31.25 161.87-33.38 162.99-35.5 163.44-36.25L163.44-36.25 169.59-36.25ZM171.89-36.25L195.44-36.25 195.44-31.05 186.29-31.05 186.29 0 180.84 0 180.84-31.05 171.89-31.05 171.89-36.25ZM226.49 0L221.09 0Q220.84-0.55 220.39-1.6 219.94-2.65 219.36-4.03 218.79-5.4 218.11-7.03 217.44-8.65 216.74-10.4L216.74-10.4 203.94-10.4 199.64 0 194.24 0 210.39-37.95Q210.69-37.25 211.46-35.4 212.24-33.55 213.31-30.98 214.39-28.4 215.71-25.28 217.04-22.15 218.41-18.95 219.79-15.75 221.11-12.65 222.44-9.55 223.54-6.95 224.64-4.35 225.41-2.53 226.19-0.7 226.49 0L226.49 0ZM209.84-24.7L205.84-15 214.89-15Q214.19-16.65 213.56-18.18 212.94-19.7 212.41-20.98 211.89-22.25 211.49-23.2 211.09-24.15 210.89-24.7L210.89-24.7Q210.84-24.8 210.66-25.4 210.49-26 210.39-26.5L210.39-26.5Q210.29-26 210.09-25.4 209.89-24.8 209.84-24.7L209.84-24.7ZM254.48 0L230.98 0 230.98-36.25 236.48-36.25 236.48-5.2 254.48-5.2 254.48 0ZM287.78 0L281.03 0Q279.28-2.25 277.68-4.3 276.08-6.35 274.53-8.4 272.98-10.45 271.41-12.55 269.83-14.65 268.08-16.9L268.08-16.9Q267.43-16.2 266.83-15.63 266.23-15.05 265.53-14.45L265.53-14.45Q265.53-10.6 265.56-7.23 265.58-3.85 265.58 0L265.58 0 259.53 0 259.53-36.25 265.58-36.25 265.58-22.7Q265.58-22.25 265.51-21.83 265.43-21.4 265.43-20.95L265.43-20.95Q265.68-21.3 265.93-21.58 266.18-21.85 266.43-22.25L266.43-22.25Q269.98-25.6 273.28-29.23 276.58-32.85 280.13-36.25L280.13-36.25 287.08-36.25Q283.33-32.35 279.66-28.4 275.98-24.45 272.23-20.55L272.23-20.55Q274.33-17.85 276.26-15.33 278.18-12.8 280.06-10.3 281.93-7.8 283.83-5.25 285.73-2.7 287.78 0L287.78 0Z" opacity="1" transform="matrix(1,0,0,1,0,0)" fill="#ffffff" class="undefined-text-0" data-fill-palette-color="primary" id="text-0"></path></svg></g></svg></g><g transform="matrix(1,0,0,1,0,65.57900697653726)"><svg viewBox="0 0 395.52 19.877295717235647" height="19.877295717235647" width="395.52"><g transform="matrix(1,0,0,1,0,0)"><svg width="395.52" viewBox="0.05000000447034836 -36.45000076293945 910.280029296875 45.75" height="19.877295717235647" data-palette-color="#ffffff"><path d="M13.92-8.89L13.92-8.89Q14.72-9.03 14.72-9.7 14.72-10.38 14.29-11.22 13.87-12.06 13.04-12.82L13.04-12.82Q10.86-14.77 7.15-14.77L7.15-14.77Q5.32-14.77 3.74-14.16L3.74-14.16Q2.05-15.01 1.05-16.87 0.05-18.73 0.05-20.87L0.05-20.87Q0.05-26.49 4.74-29.54L4.74-29.54Q8.76-32.15 14.67-32.15L14.67-32.15Q19.07-32.15 22.07-31.21 25.07-30.27 26.98-28.81L26.98-28.81Q27.54-27.2 27.54-25.46 27.54-23.73 27.08-22.31 26.61-20.9 25.73-20.04L25.73-20.04Q24.9-20.65 22.73-21.29 20.56-21.92 18.77-21.92 16.99-21.92 16.39-21.7 15.8-21.48 15.8-21.02L15.8-21.02Q15.8-20.8 15.87-20.61L15.87-20.61Q16.72-20.83 18.07-20.83L18.07-20.83Q22.83-20.83 25.83-18.58L25.83-18.58Q29.37-15.89 29.37-10.52L29.37-10.52Q29.37-5.79 25.54-2.66L25.54-2.66Q21.39 0.68 14.38 0.68L14.38 0.68Q10.52 0.68 7.69 0.11 4.86-0.46 2.17-1.9L2.17-1.9Q0.34-4.57 0.34-7.31 0.34-10.06 2.22-11.87 4.1-13.67 6.85-13.67 9.59-13.67 11.34-12.55 13.09-11.43 13.92-8.89ZM43.53-11.55L43.53-11.55Q43.53-11.13 43.92-10.99L43.92-10.99Q44.5-11.65 45.58-12.15 46.65-12.65 48-12.65L48-12.65Q50.56-12.65 52.24-11.13L52.24-11.13Q52.24-11.13 52.41-10.99L52.41-10.99Q52.73-11.16 52.73-11.6L52.73-11.6Q52.73-12.35 51.54-13.04L51.54-13.04Q50.14-13.79 47.97-13.79L47.97-13.79Q47.39-13.79 46.9-13.7L46.9-13.7 46.9-20.07Q46.9-21.12 46.18-21.12 45.46-21.12 45.46-20.04L45.46-20.04 45.46-13.35Q43.53-12.57 43.53-11.55ZM45.53 0.02L45.53 0.02Q41.31 0.02 37.86-1.57 34.42-3.17 32.37-6.52L32.37-6.52Q30.08-10.3 30.08-15.94 30.08-21.58 32.42-25.44L32.42-25.44Q34.52-28.91 38.12-30.59 41.72-32.28 45.87-32.28L45.87-32.28Q53.44-32.28 57.75-27.84 62.06-23.41 62.06-16.26L62.06-16.26Q62.06-11.89 60.2-8.59L60.2-8.59 63.74-8.59Q64.62-5.96 64.62-3.61L64.62-3.61Q64.62-0.05 62.64 2.12 60.67 4.3 57.13 4.3 53.59 4.3 51.25 1.97 48.92-0.37 47.46-5.4L47.46-5.4 47.34-5.4Q46.56-5.4 46.56-4.61L46.56-4.61Q46.56-3.15 48.19-0.12L48.19-0.12Q46.92 0.02 45.53 0.02ZM88.86 0.02L71.11 0.02Q68.4 0.02 66.93-1.42 65.45-2.86 65.45-5.76L65.45-5.76 65.45-29.64Q66.74-30.74 68.61-31.34 70.48-31.93 72.48-31.93L72.48-31.93Q75.43-31.93 77.49-30.47L77.49-30.47Q79.71-28.81 79.71-25.88L79.71-25.88 79.71-12.52Q78.34-12.4 77.02-11.76 75.7-11.11 75.7-10.42L75.7-10.42Q75.7-10.01 76.17-9.72L76.17-9.72Q78.58-11.74 83.34-11.74L83.34-11.74 89.13-11.74Q90.74-8.91 90.74-5.96L90.74-5.96Q90.74-4.49 90.23-2.71 89.72-0.93 88.86 0.02L88.86 0.02ZM142.86-16.94L142.76-12.08Q142.76-10.3 143.15-9.18 143.54-8.06 144.52-7.45L144.52-7.45Q144.55-7.32 144.55-7.03L144.55-7.03 144.55-6.67Q144.55-3.32 142.59-1.44 140.64 0.44 137.55 0.44 134.46 0.44 132.58-1.25L132.58-1.25Q130.36-3.2 130.36-7.23L130.36-7.23 130.36-14.94Q130.36-16.58 129.29-16.58L129.29-16.58Q128.87-16.58 128.63-16.38L128.63-16.38 129.07-12.74 129.07-7.23Q129.07-3.91 130.17-2.2L130.17-2.2Q128.99-0.95 127.25-0.26 125.5 0.44 123.7 0.44L123.7 0.44Q120.77 0.44 119.16-0.98L119.16-0.98Q117.2-2.69 117.2-6.37L117.2-6.37 117.2-14.94Q117.2-16.58 116.13-16.58L116.13-16.58Q115.71-16.58 115.47-16.38L115.47-16.38 115.91-12.74 115.91-6.27Q115.91-3.54 116.64-2.05L116.64-2.05Q114.25 0.42 109.93 0.42L109.93 0.42Q107.36 0.42 105.61-0.88L105.61-0.88Q103.58-2.37 103.58-4.88L103.58-4.88 103.58-16.55Q102.14-18.58 102.14-21.55 102.14-24.51 103.58-26.68L103.58-26.68 109.46-26.68Q111.2-26.68 112.42-25.39L112.42-25.39Q111.34-24.39 111.34-23.73L111.34-23.73Q111.34-22.97 112.2-22.97L112.2-22.97Q113.27-24.83 115.15-25.93L115.15-25.93Q117.35-27.17 120.3-27.17L120.3-27.17Q122.55-27.17 124.25-26.22 125.94-25.27 126.77-24.02L126.77-24.02Q127.92-25.59 129.76-26.38 131.61-27.17 133.61-27.17L133.61-27.17Q138.03-27.17 140.47-24.44L140.47-24.44Q142.86-21.7 142.86-16.94L142.86-16.94ZM170.06-16.87L170.06-12.08Q170.06-10.33 170.45-9.25 170.84-8.18 171.81-7.57L171.81-7.57Q171.84-7.45 171.84-7.1L171.84-7.1 171.84-6.67Q171.84-3.2 169.74-1.27L169.74-1.27Q167.88 0.44 165.15 0.44L165.15 0.44Q163.29 0.44 161.76-0.44 160.22-1.32 159.56-2.98L159.56-2.98Q158.73-2.98 158.73-2.17L158.73-2.17Q158.73-1.49 159.58-0.63L159.58-0.63Q158 0.44 154.8 0.44L154.8 0.44Q150.28 0.44 147.58-2.01 144.88-4.47 144.88-8.87 144.88-13.28 147.74-15.7L147.74-15.7Q150.35-17.87 154.5-17.87L154.5-17.87Q155.92-17.87 157.24-17.68L157.24-17.68Q158.12-17.5 158.19-17.48L158.19-17.48Q158.26-17.72 158.26-17.9L158.26-17.9Q158.26-18.53 157.19-18.75 156.12-18.97 154.38-18.97L154.38-18.97Q150.7-18.97 148.08-17.48L148.08-17.48Q146.89-19.51 146.89-22.61L146.89-22.61Q146.89-24.37 147.33-25.22L147.33-25.22Q149.08-26.03 151.79-26.65 154.5-27.27 157.51-27.27L157.51-27.27Q163.71-27.27 166.88-24.56 170.06-21.85 170.06-16.87L170.06-16.87ZM157.38-10.89L157.38-10.89Q156.36-10.89 156.36-9.96L156.36-9.96Q156.36-9.08 157.56-9.08L157.56-9.08Q158.39-9.08 158.78-9.48 159.17-9.89 159.17-10.89L159.17-10.89Q159.17-10.89 157.38-10.89ZM186.39-17.31L186.39-17.31Q186.14-17.55 185.8-17.55L185.8-17.55Q185.26-17.55 185.07-16.78 184.87-16.02 184.87-13.67L184.87-13.67 184.87-11.18Q184.87-10.52 185.04-10.25 185.21-9.99 185.61-9.99 186-9.99 186.17-10.16L186.17-10.16 186.17-13.43Q186.17-15.82 186.39-17.31ZM184.63-31.74L184.63-31.74Q185.92-33.25 187.49-34.02 189.05-34.79 191.46-34.79L191.46-34.79Q194.39-34.79 196.23-33.15L196.23-33.15Q198.11-31.4 198.11-28.42L198.11-28.42 198.11-12.3Q198.11-8.67 199.86-7.57L199.86-7.57Q199.89-7.45 199.89-7.1L199.89-7.1 199.89-6.67Q199.89-3.2 197.79-1.27L197.79-1.27Q195.93 0.44 193.2 0.44L193.2 0.44Q191.29 0.44 189.9-0.37L189.9-0.37Q188.27-1.29 187.61-2.91L187.61-2.91Q186.78-2.91 186.78-2.1L186.78-2.1Q186.78-1.73 187.06-1.26 187.34-0.78 187.83-0.42L187.83-0.42Q186.39 0.44 184.09 0.44L184.09 0.44Q180.99 0.44 178.29-0.99 175.6-2.42 174.01-5.3L174.01-5.3Q172.18-8.59 172.18-13.28L172.18-13.28Q172.18-19.53 175.68-23.1 179.18-26.66 184.63-26.66L184.63-26.66Q187.85-26.66 190.24-25.44L190.24-25.44Q190.51-25.71 190.51-26L190.51-26Q190.51-26.73 188.78-27.25 187.05-27.76 185.29-27.76L185.29-27.76Q185.29-30.25 184.63-31.74ZM214.85 0.76L214.85 0.76Q208.09 0.76 204.18-3L204.18-3Q200.18-6.79 200.18-13.37 200.18-19.95 204.3-23.8L204.3-23.8Q208.11-27.39 213.95-27.39 219.78-27.39 223.31-24.18 226.84-20.97 226.84-16.28L226.84-16.28Q226.84-12.11 223.93-9.99L223.93-9.99Q221.25-7.98 216.61-7.98L216.61-7.98Q213.14-7.98 210.75-9.42L210.75-9.42Q210.55-9.28 210.55-8.89L210.55-8.89Q210.55-8.15 212.48-7.54L212.48-7.54Q214.41-6.88 216.86-6.88 219.32-6.88 221.33-7.51 223.35-8.13 224.57-8.98L224.57-8.98Q225.15-8.47 225.51-7.09 225.86-5.71 225.86-4.58 225.86-3.44 225.64-2.56L225.64-2.56Q223.74-0.95 221.74-0.27L221.74-0.27Q218.9 0.76 214.85 0.76ZM214.53-15.77L214.53-15.77Q215.75-15.77 215.75-16.7L215.75-16.7Q215.75-17.58 214.46-17.58 213.17-17.58 212.97-16.19L212.97-16.19Q213.65-15.77 214.53-15.77ZM252.88-19.14L252.88-19.14Q252.25-18.95 252.25-18.38L252.25-18.38 252.25-18.26Q252.25-18.14 252.27-18.12L252.27-18.12Q252.54-18.14 252.98-18.14L252.98-18.14 253.57-18.14Q256.35-18.14 258.78-17.3 261.21-16.46 262.75-14.6L262.75-14.6Q264.46-12.5 264.46-9.3L264.46-9.3Q264.46-4.32 261.01-1.78 257.57 0.76 251.81 0.76 246.05 0.76 242.79-1.15 239.53-3.05 239.53-6.74L239.53-6.74Q239.53-8.11 240.11-9.24 240.7-10.38 241.43-10.84L241.43-10.84Q242.78-9.72 245.33-8.9 247.88-8.08 250.73-8.08L250.73-8.08Q251.88-8.08 251.88-8.72L251.88-8.72Q251.88-9.01 251.81-9.2L251.81-9.2Q251.64-9.18 251.39-9.18L251.39-9.18 251.12-9.18Q245.95-9.18 242.85-11.23L242.85-11.23Q239.33-13.55 239.33-17.77 239.33-22 242.48-24.61L242.48-24.61Q245.97-27.49 252.08-27.49L252.08-27.49Q255.08-27.49 257.68-26.86 260.28-26.22 262.14-25.17L262.14-25.17Q262.6-24.17 262.6-22.22L262.6-22.22Q262.6-19.24 260.96-17.65L260.96-17.65Q259.72-18.33 257.92-18.79 256.13-19.24 254.69-19.24 253.25-19.24 252.88-19.14ZM278.32-21.97L278.32-21.97 278.32-12.3Q278.32-8.67 280.08-7.57L280.08-7.57Q280.1-7.45 280.1-7.1L280.1-7.1 280.1-6.67Q280.1-3.08 278.15-1.27L278.15-1.27Q276.34 0.44 273.33 0.44 270.31 0.44 268.36-1.27L268.36-1.27Q265.89-3.44 265.89-7.62L265.89-7.62 265.89-23.49Q266.33-23.8 266.85-24 267.36-24.19 267.92-24.49L267.92-24.49Q266.87-25.02 266.02-26.35 265.16-27.69 265.16-29.47L265.16-29.47Q265.16-32.54 267.19-34.5 269.21-36.45 272.16-36.45 275.1-36.45 277.09-34.46 279.08-32.47 279.08-29.47L279.08-29.47Q279.08-27.05 277.56-25.23 276.05-23.41 273.88-22.95L273.88-22.95Q273.88-22.02 274.58-22.02L274.58-22.02Q275.83-22.02 277.12-23L277.12-23Q278.1-22.24 278.32-21.97ZM320.8-16.94L320.7-12.08Q320.7-10.3 321.09-9.18 321.48-8.06 322.46-7.45L322.46-7.45Q322.48-7.32 322.48-7.03L322.48-7.03 322.48-6.67Q322.48-3.32 320.53-1.44 318.58 0.44 315.49 0.44 312.4 0.44 310.52-1.25L310.52-1.25Q308.3-3.2 308.3-7.23L308.3-7.23 308.3-14.94Q308.3-16.58 307.22-16.58L307.22-16.58Q306.81-16.58 306.56-16.38L306.56-16.38 307-12.74 307-7.23Q307-3.91 308.1-2.2L308.1-2.2Q306.93-0.95 305.18-0.26 303.44 0.44 301.63 0.44L301.63 0.44Q298.7 0.44 297.09-0.98L297.09-0.98Q295.14-2.69 295.14-6.37L295.14-6.37 295.14-14.94Q295.14-16.58 294.06-16.58L294.06-16.58Q293.65-16.58 293.41-16.38L293.41-16.38 293.84-12.74 293.84-6.27Q293.84-3.54 294.58-2.05L294.58-2.05Q292.18 0.42 287.86 0.42L287.86 0.42Q285.3 0.42 283.54-0.88L283.54-0.88Q281.52-2.37 281.52-4.88L281.52-4.88 281.52-16.55Q280.08-18.58 280.08-21.55 280.08-24.51 281.52-26.68L281.52-26.68 287.4-26.68Q289.13-26.68 290.35-25.39L290.35-25.39Q289.28-24.39 289.28-23.73L289.28-23.73Q289.28-22.97 290.13-22.97L290.13-22.97Q291.21-24.83 293.09-25.93L293.09-25.93Q295.29-27.17 298.24-27.17L298.24-27.17Q300.49-27.17 302.18-26.22 303.88-25.27 304.71-24.02L304.71-24.02Q305.86-25.59 307.7-26.38 309.54-27.17 311.54-27.17L311.54-27.17Q315.96-27.17 318.41-24.44L318.41-24.44Q320.8-21.7 320.8-16.94L320.8-16.94ZM336.27-13.18L336.27-13.18 336.27-9.91Q336.44-9.74 336.84-9.74 337.23-9.74 337.4-10.01 337.57-10.28 337.57-10.94L337.57-10.94 337.57-13.43Q337.57-15.77 337.37-16.54 337.18-17.31 336.64-17.31L336.64-17.31Q336.3-17.31 336.05-17.07L336.05-17.07Q336.27-14.65 336.27-13.18ZM328.49-23.71L328.49-23.71Q328.49-22.97 329.34-22.97L329.34-22.97Q330.8-25.27 332.78-26.38 334.76-27.49 337.54-27.49 340.33-27.49 342.62-26.61L342.62-26.61Q345.77-25.37 347.6-22.61L347.6-22.61Q349.9-19.12 349.9-13.45L349.9-13.45Q349.9-7.08 346.49-3.55 343.09-0.02 337.05-0.02L337.05-0.02Q333.69-0.02 331.81-0.85L331.81-0.85Q331.64-0.76 331.64-0.44L331.64-0.44Q331.64 0.29 332.77 0.61 333.91 0.93 336.69 1.07L336.69 1.07 336.69 7.57Q334.17 8.69 331.17 8.69L331.17 8.69Q327.63 8.69 325.82 7.4L325.82 7.4Q323.77 6.01 323.77 3.13L323.77 3.13 323.77-16.53Q322.33-18.55 322.33-21.56L322.33-21.56Q322.33-22.78 322.72-24.22 323.11-25.66 323.77-26.68L323.77-26.68 327.24-26.68Q329.36-26.68 330.49-26.1L330.49-26.1Q328.49-24.61 328.49-23.71ZM363.71-29.47L363.71-29.47 363.71-12.3Q363.71-8.67 365.47-7.57L365.47-7.57Q365.49-7.45 365.49-7.1L365.49-7.1 365.49-6.67Q365.49-3.17 363.72-1.37 361.95 0.44 358.71 0.44 355.46 0.44 353.56-1.37L353.56-1.37Q351.29-3.52 351.29-7.86L351.29-7.86 351.29-33.23Q353.85-34.79 357.16-34.79 360.47-34.79 362.09-33.39 363.71-31.98 363.71-29.47ZM380.46 0.76L380.46 0.76Q373.7 0.76 369.79-3L369.79-3Q365.79-6.79 365.79-13.37 365.79-19.95 369.91-23.8L369.91-23.8Q373.72-27.39 379.55-27.39 385.39-27.39 388.92-24.18 392.45-20.97 392.45-16.28L392.45-16.28Q392.45-12.11 389.54-9.99L389.54-9.99Q386.85-7.98 382.22-7.98L382.22-7.98Q378.75-7.98 376.36-9.42L376.36-9.42Q376.16-9.28 376.16-8.89L376.16-8.89Q376.16-8.15 378.09-7.54L378.09-7.54Q380.02-6.88 382.47-6.88 384.93-6.88 386.94-7.51 388.95-8.13 390.17-8.98L390.17-8.98Q390.76-8.47 391.11-7.09 391.47-5.71 391.47-4.58 391.47-3.44 391.25-2.56L391.25-2.56Q389.34-0.95 387.34-0.27L387.34-0.27Q384.51 0.76 380.46 0.76ZM380.14-15.77L380.14-15.77Q381.36-15.77 381.36-16.7L381.36-16.7Q381.36-17.58 380.07-17.58 378.77-17.58 378.58-16.19L378.58-16.19Q379.26-15.77 380.14-15.77ZM417.25-21L417.07-13.6Q417.07-12.18 417.2-11.69L417.2-11.69Q417.34-10.91 418-10.91L418-10.91 418.22-10.91Q418.29-10.91 418.44-10.96L418.44-10.96Q418.37-11.62 418.37-12.87 418.37-14.11 418.49-16.94 418.61-19.78 418.61-25.2L418.61-25.2Q421.03-26.86 424.15-26.86L424.15-26.86Q426.6-26.86 428.19-25.9 429.79-24.95 430.4-23.19L430.4-23.19Q430.4-22.36 430.23-19.8L430.23-19.8Q429.72-13.67 428.74-10.52L428.74-10.52Q429.01-10.38 429.32-10.38 429.62-10.38 429.79-10.57L429.79-10.57Q430.5-11.38 431.14-16.38L431.14-16.38Q431.65-21.26 431.77-23.88L431.77-23.88Q431.8-24.8 431.84-25.29L431.84-25.29Q432.77-26 434.32-26.43 435.87-26.86 437.56-26.86L437.56-26.86Q440.41-26.86 442.22-25.28 444.03-23.71 444.03-21.07L444.03-21.07Q444.03-19.12 443.25-15.72 442.46-12.33 441.12-8.51 439.78-4.69 438.95-3.17L438.95-3.17Q437.78-1.07 436.15-0.32 434.53 0.44 431.14 0.44L431.14 0.44Q430.11 0.44 428.48 0.22 426.84 0 426.23-0.24L426.23-0.24Q425.72-1.07 425.02-2.69 424.33-4.3 424.03-5.18L424.03-5.18Q423.1-5.03 423.1-4.37L423.1-4.37Q423.1-4.17 423.42-3.28 423.74-2.39 423.89-2.08L423.89-2.08Q423.81-1.93 423.52-1.31 423.23-0.68 422.88-0.22L422.88-0.22Q421 0.44 417.45 0.44 413.9 0.44 411.39-0.56L411.39-0.56Q409.43-3.25 408-6.98 406.58-10.72 405.6-16.55L405.6-16.55Q403.99-18.65 403.99-21.61 403.99-24.56 405.45-26.73L405.45-26.73 411.36-26.73Q414.83-26.73 416.2-25.1L416.2-25.1Q417.25-23.83 417.25-21L417.25-21ZM457.53-21.97L457.53-21.97 457.53-12.3Q457.53-8.67 459.28-7.57L459.28-7.57Q459.31-7.45 459.31-7.1L459.31-7.1 459.31-6.67Q459.31-3.08 457.35-1.27L457.35-1.27Q455.55 0.44 452.53 0.44 449.52 0.44 447.56-1.27L447.56-1.27Q445.1-3.44 445.1-7.62L445.1-7.62 445.1-23.49Q445.54-23.8 446.05-24 446.56-24.19 447.13-24.49L447.13-24.49Q446.08-25.02 445.22-26.35 444.37-27.69 444.37-29.47L444.37-29.47Q444.37-32.54 446.39-34.5 448.42-36.45 451.36-36.45 454.3-36.45 456.29-34.46 458.28-32.47 458.28-29.47L458.28-29.47Q458.28-27.05 456.77-25.23 455.26-23.41 453.08-22.95L453.08-22.95Q453.08-22.02 453.79-22.02L453.79-22.02Q455.04-22.02 456.33-23L456.33-23Q457.31-22.24 457.53-21.97ZM462.48-8.37L462.48-15.43 463.99-15.43Q465.21-15.43 465.21-16.24L465.21-16.24Q465.21-16.33 465.16-16.53L465.16-16.53 459.7-16.53Q459.16-18.24 459.16-20.35 459.16-22.46 459.48-23.78L459.48-23.78Q460.87-24.66 463.31-26.46L463.31-26.46Q463.99-28.13 465.09-31.74L465.09-31.74Q465.24-32.23 465.43-32.69L465.43-32.69Q467.34-33.18 469.78-33.18 472.22-33.18 474.59-32.67L474.59-32.67 474.59-26.68 478.81-26.68Q480.23-24.54 480.23-21.63L480.23-21.63Q480.23-20.31 479.86-18.92 479.5-17.53 478.81-16.55L478.81-16.55 475.32-16.55 475.32-12.87Q475.32-9.74 477.93-9.74L477.93-9.74 478.98-9.74Q479.5-7.89 479.5-6.52L479.5-6.52Q479.5-3.15 477.38-1.35 475.27 0.44 471.26 0.44 467.24 0.44 464.86-1.79 462.48-4.03 462.48-8.37L462.48-8.37ZM506.98-16.85L506.91-12.08Q506.91-10.33 507.3-9.25 507.69-8.18 508.67-7.57L508.67-7.57Q508.69-7.45 508.69-7.1L508.69-7.1 508.69-6.67Q508.69-3.3 506.75-1.43 504.81 0.44 501.75 0.44 498.68 0.44 496.78-1.29L496.78-1.29Q494.56-3.27 494.56-7.3L494.56-7.3Q494.56-9.01 494.72-10.31 494.87-11.62 494.94-12.18 495-12.74 495.07-13.23 495.14-13.72 495.14-14.67 495.14-15.63 494.89-16.04 494.63-16.46 494.18-16.46 493.73-16.46 493.39-16.26L493.39-16.26 493.7-12.28Q493.26-9.81 493.26-7.06 493.26-4.3 494.51-2.03L494.51-2.03Q492.12 0.44 487.79 0.44L487.79 0.44Q485.33 0.44 483.52-0.85L483.52-0.85Q481.42-2.32 481.42-4.74L481.42-4.74 481.42-33.23Q482.59-33.91 484.24-34.35 485.89-34.79 487.57-34.79L487.57-34.79Q490.38-34.79 492.21-33.69L492.21-33.69Q494.29-32.4 494.29-29.98L494.29-29.98 494.29-27.66Q492.16-27.54 490.21-26.44L490.21-26.44Q488.53-25.46 488.53-24.66L488.53-24.66Q488.53-24.39 488.72-24.18 488.92-23.97 489.19-23.93L489.19-23.93Q490.21-25.12 492.08-25.93 493.95-26.73 496.51-26.73 499.07-26.73 501.12-25.95L501.12-25.95Q503.71-24.98 505.2-22.97L505.2-22.97Q506.98-20.53 506.98-16.85L506.98-16.85ZM546.9-17.09L546.82-12.08Q546.82-10.33 547.21-9.25 547.6-8.18 548.58-7.57L548.58-7.57Q548.6-7.45 548.6-7.1L548.6-7.1 548.6-6.67Q548.6-3.3 546.66-1.43 544.72 0.44 541.66 0.44 538.59 0.44 536.69-1.29L536.69-1.29Q534.47-3.27 534.47-7.3L534.47-7.3Q534.47-9.01 534.63-10.31 534.79-11.62 534.85-12.18 534.91-12.74 534.98-13.23 535.05-13.72 535.05-14.67 535.05-15.63 534.8-16.04 534.54-16.46 534.09-16.46 533.64-16.46 533.3-16.26L533.3-16.26 533.61-12.28Q533.18-9.81 533.18-7.06 533.18-4.3 534.42-2.03L534.42-2.03Q532.03 0.44 527.71 0.44L527.71 0.44Q525.24 0.44 523.43-0.85L523.43-0.85Q521.33-2.32 521.33-4.74L521.33-4.74 521.33-16.55Q519.89-18.58 519.89-21.55 519.89-24.51 521.33-26.68L521.33-26.68 525.68-26.68Q527.41-26.68 528.63-25.39L528.63-25.39Q527.56-24.39 527.56-23.73L527.56-23.73Q527.56-22.97 528.41-22.97L528.41-22.97Q529.49-24.83 531.7-26.05 533.91-27.27 536.72-27.27L536.72-27.27Q540.94-27.27 543.58-25.2L543.58-25.2Q546.9-22.58 546.9-17.09L546.9-17.09ZM574.11-16.87L574.11-12.08Q574.11-10.33 574.51-9.25 574.9-8.18 575.87-7.57L575.87-7.57Q575.9-7.45 575.9-7.1L575.9-7.1 575.9-6.67Q575.9-3.2 573.8-1.27L573.8-1.27Q571.94 0.44 569.21 0.44L569.21 0.44Q567.35 0.44 565.81-0.44 564.28-1.32 563.62-2.98L563.62-2.98Q562.79-2.98 562.79-2.17L562.79-2.17Q562.79-1.49 563.64-0.63L563.64-0.63Q562.05 0.44 558.86 0.44L558.86 0.44Q554.34 0.44 551.64-2.01 548.94-4.47 548.94-8.87 548.94-13.28 551.8-15.7L551.8-15.7Q554.41-17.87 558.56-17.87L558.56-17.87Q559.98-17.87 561.3-17.68L561.3-17.68Q562.18-17.5 562.25-17.48L562.25-17.48Q562.32-17.72 562.32-17.9L562.32-17.9Q562.32-18.53 561.25-18.75 560.17-18.97 558.44-18.97L558.44-18.97Q554.75-18.97 552.14-17.48L552.14-17.48Q550.95-19.51 550.95-22.61L550.95-22.61Q550.95-24.37 551.39-25.22L551.39-25.22Q553.14-26.03 555.85-26.65 558.56-27.27 561.57-27.27L561.57-27.27Q567.77-27.27 570.94-24.56 574.11-21.85 574.11-16.87L574.11-16.87ZM561.44-10.89L561.44-10.89Q560.42-10.89 560.42-9.96L560.42-9.96Q560.42-9.08 561.61-9.08L561.61-9.08Q562.44-9.08 562.84-9.48 563.23-9.89 563.23-10.89L563.23-10.89Q563.23-10.89 561.44-10.89ZM578.38-8.37L578.38-15.43 579.9-15.43Q581.12-15.43 581.12-16.24L581.12-16.24Q581.12-16.33 581.07-16.53L581.07-16.53 575.6-16.53Q575.06-18.24 575.06-20.35 575.06-22.46 575.38-23.78L575.38-23.78Q576.77-24.66 579.21-26.46L579.21-26.46Q579.9-28.13 581-31.74L581-31.74Q581.14-32.23 581.34-32.69L581.34-32.69Q583.24-33.18 585.68-33.18 588.13-33.18 590.49-32.67L590.49-32.67 590.49-26.68 594.72-26.68Q596.13-24.54 596.13-21.63L596.13-21.63Q596.13-20.31 595.77-18.92 595.4-17.53 594.72-16.55L594.72-16.55 591.23-16.55 591.23-12.87Q591.23-9.74 593.84-9.74L593.84-9.74 594.89-9.74Q595.4-7.89 595.4-6.52L595.4-6.52Q595.4-3.15 593.29-1.35 591.18 0.44 587.16 0.44 583.15 0.44 580.77-1.79 578.38-4.03 578.38-8.37L578.38-8.37ZM610.29-10.64L610.29-10.64Q610.58-10.64 610.93-10.89L610.93-10.89Q610.68-11.69 610.68-13.4L610.68-13.4 610.68-25.46Q613.27-27.03 616.91-27.03L616.91-27.03Q618.96-27.03 620.51-26.48 622.06-25.93 622.89-25.02L622.89-25.02 622.89-12.3Q622.89-8.67 624.65-7.57L624.65-7.57Q624.67-7.45 624.67-7.1L624.67-7.1 624.67-6.67Q624.67-3.1 622.79-1.27L622.79-1.27Q621.08 0.44 618.08 0.44L618.08 0.44Q616.2 0.44 614.67-0.42 613.15-1.27 612.39-2.91L612.39-2.91Q611.56-2.91 611.56-2.1L611.56-2.1Q611.56-1.54 612.12-0.98L612.12-0.98Q611.34-0.34 610.24 0.05 609.14 0.44 607.01 0.44 604.87 0.44 602.85-0.44L602.85-0.44Q600.33-1.51 598.99-3.74L598.99-3.74Q597.35-6.37 597.35-10.42L597.35-10.42 597.35-16.55Q596.11-18.73 596.11-21.34L596.11-21.34Q596.11-22.68 596.45-24.12 596.79-25.56 597.55-26.68L597.55-26.68 602.92-26.68Q605.95-26.68 607.67-25.26 609.39-23.83 609.39-20.92L609.39-20.92 609.39-13.01Q609.39-10.64 610.29-10.64ZM632.65 0.32L632.65 0.32Q629.75 0.32 628.01-0.73L628.01-0.73Q626.08-1.83 626.08-3.98L626.08-3.98 626.08-16.55Q624.64-18.58 624.64-21.55 624.64-24.51 626.08-26.68L626.08-26.68 629.82-26.68Q632.7-26.68 633.95-24.83L633.95-24.83Q633.34-24.15 632.87-23.1 632.41-22.05 632.41-21.59 632.41-21.14 632.64-20.92 632.87-20.7 633.31-20.7L633.31-20.7Q634.17-24.1 636.56-25.68L636.56-25.68Q638.54-27.03 641.44-27.03L641.44-27.03Q645.05-27.03 647.11-25.49L647.11-25.49Q647.84-23.54 647.84-20.72 647.84-17.9 646.71-15.6L646.71-15.6Q645.88-15.16 644.42-14.86 642.96-14.55 641.47-14.55 639.98-14.55 638.79-14.76 637.61-14.97 637.07-15.14L637.07-15.14Q636.88-14.94 636.88-14.58 636.88-14.21 637.35-14.03 637.83-13.84 638.95-13.62L638.95-13.62 638.95-1.37Q636.29 0.32 632.65 0.32ZM672.13-16.87L672.13-12.08Q672.13-10.33 672.52-9.25 672.91-8.18 673.89-7.57L673.89-7.57Q673.91-7.45 673.91-7.1L673.91-7.1 673.91-6.67Q673.91-3.2 671.81-1.27L671.81-1.27Q669.95 0.44 667.22 0.44L667.22 0.44Q665.36 0.44 663.83-0.44 662.29-1.32 661.63-2.98L661.63-2.98Q660.8-2.98 660.8-2.17L660.8-2.17Q660.8-1.49 661.65-0.63L661.65-0.63Q660.07 0.44 656.87 0.44L656.87 0.44Q652.35 0.44 649.65-2.01 646.96-4.47 646.96-8.87 646.96-13.28 649.81-15.7L649.81-15.7Q652.43-17.87 656.58-17.87L656.58-17.87Q657.99-17.87 659.31-17.68L659.31-17.68Q660.19-17.5 660.26-17.48L660.26-17.48Q660.34-17.72 660.34-17.9L660.34-17.9Q660.34-18.53 659.26-18.75 658.19-18.97 656.45-18.97L656.45-18.97Q652.77-18.97 650.15-17.48L650.15-17.48Q648.96-19.51 648.96-22.61L648.96-22.61Q648.96-24.37 649.4-25.22L649.4-25.22Q651.16-26.03 653.87-26.65 656.58-27.27 659.58-27.27L659.58-27.27Q665.78-27.27 668.95-24.56 672.13-21.85 672.13-16.87L672.13-16.87ZM659.46-10.89L659.46-10.89Q658.43-10.89 658.43-9.96L658.43-9.96Q658.43-9.08 659.63-9.08L659.63-9.08Q660.46-9.08 660.85-9.48 661.24-9.89 661.24-10.89L661.24-10.89Q661.24-10.89 659.46-10.89ZM687.33-29.47L687.33-29.47 687.33-12.3Q687.33-8.67 689.09-7.57L689.09-7.57Q689.12-7.45 689.12-7.1L689.12-7.1 689.12-6.67Q689.12-3.17 687.35-1.37 685.58 0.44 682.33 0.44 679.08 0.44 677.18-1.37L677.18-1.37Q674.91-3.52 674.91-7.86L674.91-7.86 674.91-33.23Q677.47-34.79 680.78-34.79 684.09-34.79 685.71-33.39 687.33-31.98 687.33-29.47ZM713.97-29.47L713.97-29.47 713.97-12.3Q713.97-8.67 715.72-7.57L715.72-7.57Q715.75-7.45 715.75-7.1L715.75-7.1 715.75-6.67Q715.75-3.17 713.98-1.37 712.21 0.44 708.96 0.44 705.71 0.44 703.81-1.37L703.81-1.37Q701.54-3.52 701.54-7.86L701.54-7.86 701.54-33.23Q704.1-34.79 707.41-34.79 710.72-34.79 712.34-33.39 713.97-31.98 713.97-29.47ZM741.5-16.87L741.5-12.08Q741.5-10.33 741.89-9.25 742.28-8.18 743.26-7.57L743.26-7.57Q743.28-7.45 743.28-7.1L743.28-7.1 743.28-6.67Q743.28-3.2 741.18-1.27L741.18-1.27Q739.33 0.44 736.59 0.44L736.59 0.44Q734.74 0.44 733.2-0.44 731.66-1.32 731-2.98L731-2.98Q730.17-2.98 730.17-2.17L730.17-2.17Q730.17-1.49 731.03-0.63L731.03-0.63Q729.44 0.44 726.24 0.44L726.24 0.44Q721.73 0.44 719.03-2.01 716.33-4.47 716.33-8.87 716.33-13.28 719.19-15.7L719.19-15.7Q721.8-17.87 725.95-17.87L725.95-17.87Q727.37-17.87 728.68-17.68L728.68-17.68Q729.56-17.5 729.64-17.48L729.64-17.48Q729.71-17.72 729.71-17.9L729.71-17.9Q729.71-18.53 728.64-18.75 727.56-18.97 725.83-18.97L725.83-18.97Q722.14-18.97 719.53-17.48L719.53-17.48Q718.33-19.51 718.33-22.61L718.33-22.61Q718.33-24.37 718.77-25.22L718.77-25.22Q720.53-26.03 723.24-26.65 725.95-27.27 728.95-27.27L728.95-27.27Q735.15-27.27 738.33-24.56 741.5-21.85 741.5-16.87L741.5-16.87ZM728.83-10.89L728.83-10.89Q727.81-10.89 727.81-9.96L727.81-9.96Q727.81-9.08 729-9.08L729-9.08Q729.83-9.08 730.22-9.48 730.61-9.89 730.61-10.89L730.61-10.89Q730.61-10.89 728.83-10.89ZM770.19-17.09L770.11-12.08Q770.11-10.33 770.5-9.25 770.89-8.18 771.87-7.57L771.87-7.57Q771.9-7.45 771.9-7.1L771.9-7.1 771.9-6.67Q771.9-3.3 769.95-1.43 768.01 0.44 764.95 0.44 761.89 0.44 759.98-1.29L759.98-1.29Q757.76-3.27 757.76-7.3L757.76-7.3Q757.76-9.01 757.92-10.31 758.08-11.62 758.14-12.18 758.2-12.74 758.27-13.23 758.35-13.72 758.35-14.67 758.35-15.63 758.09-16.04 757.83-16.46 757.38-16.46 756.93-16.46 756.59-16.26L756.59-16.26 756.9-12.28Q756.47-9.81 756.47-7.06 756.47-4.3 757.71-2.03L757.71-2.03Q755.32 0.44 751 0.44L751 0.44Q748.53 0.44 746.72-0.85L746.72-0.85Q744.62-2.32 744.62-4.74L744.62-4.74 744.62-16.55Q743.18-18.58 743.18-21.55 743.18-24.51 744.62-26.68L744.62-26.68 748.97-26.68Q750.7-26.68 751.92-25.39L751.92-25.39Q750.85-24.39 750.85-23.73L750.85-23.73Q750.85-22.97 751.7-22.97L751.7-22.97Q752.78-24.83 754.99-26.05 757.2-27.27 760.01-27.27L760.01-27.27Q764.23-27.27 766.87-25.2L766.87-25.2Q770.19-22.58 770.19-17.09L770.19-17.09ZM786.39-16.33L786.39-17.5Q786.39-18.38 785.74-18.38L785.74-18.38Q785.13-18.38 785.13-17.65L785.13-17.65 785.13-15.14Q785.32-14.97 785.71-14.97 786.1-14.97 786.25-15.26 786.39-15.55 786.39-16.33L786.39-16.33ZM787.3-7.62L787.3-7.62Q785.74-7.62 784.64-7.84L784.64-7.84Q784.56-7.62 784.56-7.42L784.56-7.42Q784.56-6.88 785.33-6.7 786.1-6.52 787.3-6.52L787.3-6.52Q791.11-6.52 793.79-7.64L793.79-7.64Q796.43-6.96 797.89-4.66L797.89-4.66Q799.09-2.78 799.09-0.24L799.09-0.24Q799.09 4.27 795.26 6.79 791.42 9.3 785.38 9.3 779.34 9.3 776.04 7.15L776.04 7.15Q772.99 5.2 772.99 2.08L772.99 2.08Q772.99 0.88 773.55-0.23 774.11-1.34 774.85-1.76L774.85-1.76Q776.07-0.73 778.45-0.1 780.83 0.54 783.34 0.54 785.86 0.54 786.58 0.34 787.3 0.15 787.3-0.34L787.3-0.34Q787.3-0.59 787.15-0.83L787.15-0.83Q785.93-0.56 784.1-0.56L784.1-0.56Q779.39-0.56 776.7-1.9L776.7-1.9Q773.43-3.52 773.43-6.76L773.43-6.76Q773.43-8.03 773.94-9.12 774.46-10.21 775.46-10.74L775.46-10.74Q774.11-11.57 773.17-13.26 772.23-14.94 772.23-17.41L772.23-17.41Q772.23-22.09 775.75-24.8 779.27-27.51 784.88-27.51L784.88-27.51Q787.59-27.51 790.11-26.61L790.11-26.61 790.11-28.32Q791.55-28.88 793.93-28.88 796.31-28.88 797.55-28.08L797.55-28.08Q799.07-27.1 799.07-24.63L799.07-24.63Q799.07-23.27 798.78-22.44 798.5-21.61 797.97-20.7L797.97-20.7Q798.6-19.09 798.6-16.7L798.6-16.7Q798.6-12.38 795.54-10 792.47-7.62 787.3-7.62ZM814.1-10.64L814.1-10.64Q814.4-10.64 814.74-10.89L814.74-10.89Q814.49-11.69 814.49-13.4L814.49-13.4 814.49-25.46Q817.08-27.03 820.72-27.03L820.72-27.03Q822.77-27.03 824.32-26.48 825.87-25.93 826.7-25.02L826.7-25.02 826.7-12.3Q826.7-8.67 828.46-7.57L828.46-7.57Q828.48-7.45 828.48-7.1L828.48-7.1 828.48-6.67Q828.48-3.1 826.6-1.27L826.6-1.27Q824.89 0.44 821.89 0.44L821.89 0.44Q820.01 0.44 818.48-0.42 816.96-1.27 816.2-2.91L816.2-2.91Q815.37-2.91 815.37-2.1L815.37-2.1Q815.37-1.54 815.93-0.98L815.93-0.98Q815.15-0.34 814.05 0.05 812.95 0.44 810.82 0.44 808.68 0.44 806.66-0.44L806.66-0.44Q804.14-1.51 802.8-3.74L802.8-3.74Q801.16-6.37 801.16-10.42L801.16-10.42 801.16-16.55Q799.92-18.73 799.92-21.34L799.92-21.34Q799.92-22.68 800.26-24.12 800.6-25.56 801.36-26.68L801.36-26.68 806.73-26.68Q809.76-26.68 811.48-25.26 813.2-23.83 813.2-20.92L813.2-20.92 813.2-13.01Q813.2-10.64 814.1-10.64ZM854.24-16.87L854.24-12.08Q854.24-10.33 854.63-9.25 855.02-8.18 855.99-7.57L855.99-7.57Q856.02-7.45 856.02-7.1L856.02-7.1 856.02-6.67Q856.02-3.2 853.92-1.27L853.92-1.27Q852.06 0.44 849.33 0.44L849.33 0.44Q847.47 0.44 845.94-0.44 844.4-1.32 843.74-2.98L843.74-2.98Q842.91-2.98 842.91-2.17L842.91-2.17Q842.91-1.49 843.76-0.63L843.76-0.63Q842.18 0.44 838.98 0.44L838.98 0.44Q834.46 0.44 831.76-2.01 829.07-4.47 829.07-8.87 829.07-13.28 831.92-15.7L831.92-15.7Q834.53-17.87 838.68-17.87L838.68-17.87Q840.1-17.87 841.42-17.68L841.42-17.68Q842.3-17.5 842.37-17.48L842.37-17.48Q842.44-17.72 842.44-17.9L842.44-17.9Q842.44-18.53 841.37-18.75 840.3-18.97 838.56-18.97L838.56-18.97Q834.88-18.97 832.26-17.48L832.26-17.48Q831.07-19.51 831.07-22.61L831.07-22.61Q831.07-24.37 831.51-25.22L831.51-25.22Q833.26-26.03 835.97-26.65 838.68-27.27 841.69-27.27L841.69-27.27Q847.89-27.27 851.06-24.56 854.24-21.85 854.24-16.87L854.24-16.87ZM841.57-10.89L841.57-10.89Q840.54-10.89 840.54-9.96L840.54-9.96Q840.54-9.08 841.74-9.08L841.74-9.08Q842.57-9.08 842.96-9.48 843.35-9.89 843.35-10.89L843.35-10.89Q843.35-10.89 841.57-10.89ZM870.57-16.33L870.57-17.5Q870.57-18.38 869.91-18.38L869.91-18.38Q869.3-18.38 869.3-17.65L869.3-17.65 869.3-15.14Q869.49-14.97 869.88-14.97 870.27-14.97 870.42-15.26 870.57-15.55 870.57-16.33L870.57-16.33ZM871.47-7.62L871.47-7.62Q869.91-7.62 868.81-7.84L868.81-7.84Q868.74-7.62 868.74-7.42L868.74-7.42Q868.74-6.88 869.5-6.7 870.27-6.52 871.47-6.52L871.47-6.52Q875.28-6.52 877.96-7.64L877.96-7.64Q880.6-6.96 882.07-4.66L882.07-4.66Q883.26-2.78 883.26-0.24L883.26-0.24Q883.26 4.27 879.43 6.79 875.6 9.3 869.55 9.3 863.51 9.3 860.22 7.15L860.22 7.15Q857.16 5.2 857.16 2.08L857.16 2.08Q857.16 0.88 857.72-0.23 858.29-1.34 859.02-1.76L859.02-1.76Q860.24-0.73 862.62-0.1 865 0.54 867.52 0.54 870.03 0.54 870.75 0.34 871.47 0.15 871.47-0.34L871.47-0.34Q871.47-0.59 871.32-0.83L871.32-0.83Q870.1-0.56 868.27-0.56L868.27-0.56Q863.56-0.56 860.87-1.9L860.87-1.9Q857.6-3.52 857.6-6.76L857.6-6.76Q857.6-8.03 858.12-9.12 858.63-10.21 859.63-10.74L859.63-10.74Q858.29-11.57 857.35-13.26 856.41-14.94 856.41-17.41L856.41-17.41Q856.41-22.09 859.92-24.8 863.44-27.51 869.05-27.51L869.05-27.51Q871.76-27.51 874.28-26.61L874.28-26.61 874.28-28.32Q875.72-28.88 878.1-28.88 880.48-28.88 881.72-28.08L881.72-28.08Q883.24-27.1 883.24-24.63L883.24-24.63Q883.24-23.27 882.96-22.44 882.68-21.61 882.14-20.7L882.14-20.7Q882.77-19.09 882.77-16.7L882.77-16.7Q882.77-12.38 879.71-10 876.65-7.62 871.47-7.62ZM898.35 0.76L898.35 0.76Q891.58 0.76 887.68-3L887.68-3Q883.67-6.79 883.67-13.37 883.67-19.95 887.8-23.8L887.8-23.8Q891.61-27.39 897.44-27.39 903.28-27.39 906.81-24.18 910.33-20.97 910.33-16.28L910.33-16.28Q910.33-12.11 907.43-9.99L907.43-9.99Q904.74-7.98 900.11-7.98L900.11-7.98Q896.64-7.98 894.25-9.42L894.25-9.42Q894.05-9.28 894.05-8.89L894.05-8.89Q894.05-8.15 895.98-7.54L895.98-7.54Q897.91-6.88 900.36-6.88 902.82-6.88 904.83-7.51 906.84-8.13 908.06-8.98L908.06-8.98Q908.65-8.47 909-7.09 909.36-5.71 909.36-4.58 909.36-3.44 909.14-2.56L909.14-2.56Q907.23-0.95 905.23-0.27L905.23-0.27Q902.4 0.76 898.35 0.76ZM898.03-15.77L898.03-15.77Q899.25-15.77 899.25-16.7L899.25-16.7Q899.25-17.58 897.96-17.58 896.66-17.58 896.47-16.19L896.47-16.19Q897.15-15.77 898.03-15.77Z" opacity="1" transform="matrix(1,0,0,1,0,0)" fill="#ffffff" class="undefined-text-1" data-fill-palette-color="secondary" id="text-1"></path></svg></g></svg></g></svg></g></svg></g><g transform="matrix(1,0,0,1,130.86366476520692,0)"><svg viewBox="0 0 135.77027046958605 118.10061032279417" height="118.10061032279417" width="135.77027046958605"><g><svg xmlns="http://www.w3.org/2000/svg" xmlns:xlink="http://www.w3.org/1999/xlink" version="1.1" x="0" y="0" viewBox="7.7860002517700195 13.361000061035156 84.45763397216797 73.46599578857422" enable-background="new 0 0 100 100" xml:space="preserve" height="118.10061032279417" width="135.77027046958605" class="icon-icon-0" data-fill-palette-color="accent" id="icon-0"><path d="M91.609 85.407c-4.207-5.085-3.187-12-2.187-15.735 0.942-2.331 1.472-4.812 1.472-7.406 0-4.633-1.631-8.939-4.414-12.549C83.77 66.564 67.068 79.609 46.761 79.93c4.665 3.282 10.648 5.26 17.174 5.26 4.771 0 9.237-1.063 13.119-2.91 5.959 3.998 13.379 4.547 13.379 4.547C93.641 86.825 91.609 85.407 91.609 85.407z" fill="#ffffff" data-fill-palette-color="accent"></path><path d="M83.426 44.923c0-17.401-16.789-31.562-37.421-31.562-20.635 0-37.422 14.161-37.422 31.562 0 3.4 0.673 6.804 2.003 10.106 1.544 5.688 3.072 15.9-2.8 23.798 1.994-0.214 10.954-1.419 18.195-6.271l0.823-0.55 0.894 0.423c5.578 2.651 11.908 4.057 18.307 4.057C66.637 76.486 83.426 62.324 83.426 44.923z" fill="#ffffff" data-fill-palette-color="accent"></path></svg></g></svg></g><g></g></svg></g><defs></defs></svg><rect width="395.52" height="232.22988530156036" fill="none" stroke="none" visibility="hidden"></rect></g></svg></g></svg>